<svg xmlns="http://www.w3.org/2000/svg" width="1280" height="1280" viewBox="0 0 1600 1600"><path fill="#E24A38" d="m969 429 4.81-.012c7.51-.02 15-.034 22.5-.042 8.63-.01 17.3-.036 25.9-.077 6.71-.03 13.4-.045 20.1-.048 3.99-.002 7.99-.011 12-.036 3.74-.024 7.48-.028 11.2-.018 2.02.001 4.05-.018 6.07-.038l3.65.021 3.17-.007c3.52.642 4.67 1.58 6.71 4.49.508 2.94.508 2.94.519 6.44l.023 1.95c.02 2.16.012 4.31.004 6.47.009 1.55.02 3.09.031 4.64.028 4.2.031 8.4.03 12.6.004 4.39.03 8.78.052 13.2.041 8.31.061 16.6.074 24.9.016 9.46.055 18.9.095 28.4.082 19.5.137 38.9.172 58.4l2.39.007c19.2.06 38.3.135 57.5.228 9.27.045 18.5.085 27.8.111 8.08.023 16.2.057 24.2.102 4.28.024 8.55.043 12.8.05 4.03.005 8.06.025 12.1.056 1.48.009 2.95.012 4.43.01 2.02-.001 4.04.018 6.06.037l3.42.014c3.95.465 6.7 1.68 10.3 3.38.047 22.7.082 45.3.104 68 .01 10.5.024 21 .047 31.6.02 9.16.033 18.3.038 27.5.002 4.85.008 9.71.023 14.6.013 4.57.018 9.13.015 13.7 0 1.68.004 3.36.012 5.04.01 2.29.008 4.57.002 6.86l.006 3.88c-.246 2.96-.246 2.96-2.25 4.96-2.96.218-5.82.311-8.78.319l-2.77.03c-3.06.032-6.11.048-9.17.065-2.16.019-4.32.038-6.49.059-5.75.052-11.5.09-17.2.128-4.53.031-9.05.071-13.6.112-19.5.174-39 .309-58.5.275l-3.58-.005c-5.66-.01-11.3-.025-17-.051l-6.07-.016-2.77-.02-2.57-.003-2.21-.01c-2.81.144-5.52.615-8.29 1.12l-.01 2.45c-.081 19.6-.173 39.2-.277 58.9-.05 9.49-.097 19-.134 28.5-.033 8.27-.073 16.5-.121 24.8-.026 4.38-.047 8.76-.06 13.1-.014 4.12-.036 8.24-.065 12.4-.009 1.51-.015 3.03-.017 4.54-.003 2.06-.018 4.12-.037 6.19l-.017 3.5c-.262 2.7-.262 2.7-2.26 4.7-2.44.303-2.44.303-5.49.379l-3.33.104-3.49.08c-2.27.06-4.53.124-6.8.19l-3.06.073c-2.82.108-2.82.108-5.51.714-2.56.506-4.58.183-7.12-.247-5.01-.669-10.1-.68-15.1-.856l-3.52-.13c-2.85-.106-5.7-.209-8.54-.308v2l-1.72-.168c-2.75-.023-4.69.193-7.28 1.17-2.91 3.34-4.86 7.14-7 11-3.44 5.04-7.35 9.64-11.4 14.2-1.28 1.46-2.51 2.97-3.72 4.5-2.13 2.63-4.45 4.95-6.88 7.31-.887.928-1.77 1.86-2.69 2.81-2.31 2.19-2.31 2.19-4.31 2.19-.309.804-.309.804-.625 1.62-1.91 3.29-4.42 5.97-7.38 8.38h-2l-.812 1.94c-1.19 2.06-1.19 2.06-4.19 3.06-.289.578-.577 1.16-.875 1.75-1.84 3.69-4.59 6.51-8.31 8.31-2.39 1.24-2.65 2.54-3.81 4.94-4.33 4.78-4.33 4.78-8 6l-1 3h-2l-2 4h-2l-1 3c-2.44 2.69-2.44 2.69-5 5h-2l-2 4h-2l-1 3c-1.49 1.26-2.98 2.52-4.51 3.73-1.81 1.55-3.08 3.36-4.49 5.27h-2l-2 4h-2l-2 4h-2l-.688 1.69c-1.69 2.97-3.84 4.96-6.31 7.31-.846.887-1.69 1.77-2.56 2.69-2.44 2.31-2.44 2.31-4.62 3.38-2.37 1.23-2.73 2.55-3.81 4.94-1.5 1.75-1.5 1.75-3 3h-2l-.812 1.94c-1.19 2.06-1.19 2.06-4.19 3.06-1.21 2-1.21 2-2 4h-2l-.688 1.75c-1.65 2.82-3.75 4.25-6.31 6.25-.557.742-1.11 1.49-1.69 2.25-.433.577-.866 1.16-1.31 1.75h-2l-2 4h-2l-1 3c-1.71 1.65-1.71 1.65-3.81 3.38-3.15 2.67-5.62 5.39-8.19 8.62-1.72 1.52-3.49 2.98-5.26 4.44-1.72 1.54-3.12 3.13-4.55 4.93-.722.866-1.44 1.73-2.19 2.62h-2l-2 4h-2l-.688 1.69c-2.27 4-4.93 6.85-9.31 8.31-.289.577-.578 1.16-.875 1.75-1.52 3.04-3.67 4.9-6.12 7.25l-1.59 1.65c-1.43 1.49-2.92 2.92-4.41 4.35h-2l-.789 1.82c-1.29 2.33-2.51 3.48-4.59 5.12-2.98 2.43-5.23 5.05-7.62 8.06h-2l-.812 1.94c-1.19 2.06-1.19 2.06-4.19 3.06l-1 2-1 2-3 1c-1.21 2-1.21 2-2 4h-2l-.75 1.88c-1.49 2.53-2.69 2.84-5.25 4.12l-.938 1.88c-1.5 2.99-3.25 4.34-6.06 6.12-3.93.563-5.5.353-8.77-1.97-.932-.909-1.86-1.82-2.82-2.76-.513-.493-1.03-.986-1.55-1.49-1.63-1.58-3.24-3.18-4.85-4.78-1.04-1.03-2.09-2.05-3.14-3.08-3.12-3.08-6.21-6.18-9.3-9.3-1.06-1.06-2.12-2.13-3.18-3.19-1.94-1.94-3.87-3.89-5.8-5.84-2.52-2.54-5.05-5.07-7.58-7.6-.742-.744-1.48-1.49-2.25-2.25-3.08-3.08-6.17-6.14-9.26-9.21-3.51-3.49-7.02-6.98-10.5-10.5-1.86-1.85-3.71-3.69-5.57-5.53-2.68-2.66-5.36-5.32-8.03-7.99l-2.54-2.51-2.32-2.32a777.53 777.53 0 0 1-2.05-2.04c-1.45-1.69-1.45-1.69-1.45-3.69l-1.79-.836c-4.86-2.56-8.7-6.47-12.2-10.6-4.42-5.1-9.2-9.82-14-14.6l-4.95-4.92c-4.68-4.66-9.37-9.31-14.1-14-2.88-2.86-5.76-5.72-8.64-8.59a505.63 505.63 0 0 0-3.29-3.26 978.09 978.09 0 0 1-4.57-4.54c-.867-.86-1.73-1.72-2.63-2.61-1.85-2.08-1.85-2.08-1.85-4.08-.548-.22-1.1-.44-1.66-.668-3.08-1.75-5.34-4.12-7.78-6.64-.465-.474-.929-.947-1.41-1.44-1.39-1.41-2.77-2.83-4.15-4.25l-5-5-5.46-5.49c-1.58-1.59-3.16-3.17-4.73-4.75-1.08-1.08-2.15-2.16-3.23-3.25-5.5-5.54-11-11-16.9-16.1-2.27-2.01-4.23-4.22-6.2-6.51-3.07-3.49-6.19-6.53-9.78-9.47-2.45-2.17-4.48-4.66-6.59-7.15-2.02-2.26-4.15-4.38-6.33-6.5-9.75-9.47-17.9-20-24.7-31.8v-1l2.43-.076c7.84-.245 7.84-.245 15.7-.505l4.3-.146 2.18-.073c4.63-.153 9.27-.262 13.9-.348l3.49-.085c2.15-.051 4.3-.09 6.46-.11 8.99-.249 16.9-2.36 23.6-8.66.722-.66 1.44-1.32 2.19-2 1.75-1.93 2.69-3.67 3.81-6l2-1c.973-1.88 1.94-3.76 2.86-5.66 1.18-2.42 2.38-4.83 3.64-7.21.572-1.11.572-1.11 1.16-2.24 1.55-2.17 2.9-2.9 5.34-3.88v2h2c.804 1.61.804 1.61 1.62 3.25.371.74.743 1.48 1.12 2.25.837 1.68 1.67 3.36 2.5 5.04a731.3 731.3 0 0 0 9.5 18.5c.42.797.84 1.6 1.27 2.42 2.27 4.3 4.55 8.6 6.84 12.9.462.868.924 1.74 1.4 2.63.892 1.68 1.79 3.35 2.69 5.03l1.21 2.28c.355.664.711 1.33 1.08 2.01.76 1.67.76 1.67.76 3.67l1.69.811c2.31 1.19 2.31 1.19 4.44 2.75 5.33 2.66 12.2 3.29 17.9 1.44l2-.625c8.89-6.11 11.4-19.1 13.6-28.9 1.47-6.64 3.21-13 5.44-19.4 4.86-14.7 9.19-29.5 13.3-44.5l.7-2.55c.191-.695.382-1.39.578-2.11.92-3.29 1.98-6.46 3.23-9.64 2.28-6.11 3.84-12.4 5.35-18.7 1.02-4.12 1.85-7.37 4.84-10.5 1.88 2.83 2.31 3.84 2.79 7.02l.403 2.54.433 2.81c2.05 12.6 4.78 25 7.56 37.5 1.72 7.75 3.29 15.5 4.38 23.3.638 4.12 1.62 8.15 2.59 12.2.974 4.17 1.85 8.36 2.72 12.6 1.49 7.17 3.09 14.3 4.75 21.4 1.58 6.81 2.89 13.6 3.85 20.5.973 5.83 2.55 11.5 4.03 17.2 1.97 7.64 3.6 15.3 4.93 23.1 1.06 6.17 2.21 12.3 3.5 18.4l.441 2.22c1.09 5.04 2.96 8.75 5.62 13.2v2c5.09 1.8 9.41 3.24 14.8 2.44 9.44-5.38 12.6-24.2 15.7-33.9.576-1.79 1.15-3.59 1.73-5.38 3.2-9.99 6.32-20 9.04-30.1.885-3.28 1.83-6.26 3.2-9.39 1.62-3.86 2.69-7.66 3.75-11.7 1.36-5.07 2.93-10.1 4.48-15.1.342-1.11.683-2.21 1.04-3.35 3.67-11.9 7.46-23.7 11.3-35.5 7.71 3.32 11 13.6 14.8 20.8 2.44 4.59 4.89 9.17 7.37 13.7l1.2 2.25c2.43 4.42 5.09 8.13 8.54 11.8 1.14 1.43 1.14 1.43 1.14 3.43.572.285 1.14.57 1.73.863 1.46.731 2.91 1.48 4.34 2.24 4.48 2.23 7.95 3.55 12.9 2.57 6.1-2.08 10.6-6.02 15-10.7 1.52-1.52 3.04-3.05 4.56-4.56l2.25-2.25 2.18-2.18c1.03-1.1 1.03-1.1 2.09-2.21 1.91-1.79 1.91-1.79 4.91-2.79 1-2.62 1-2.62 1.62-5.75l.727-3.17c.567-2.69 1.12-5.38 1.65-8.08-10.1.043-17.6 4.25-25 11-.557.743-1.11 1.48-1.69 2.25-.433.578-.866 1.16-1.31 1.75h-2l-.688 1.69c-1.67 2.94-3.87 4.99-6.31 7.31-8.81-3.72-13.2-14.5-17.3-22.6-4.6-8.7-9.43-17.1-14.8-25.4-1.93-3.05-1.93-3.05-3.08-5.4-1.17-2.28-2.52-2.69-4.85-3.65-.9-.532-.9-.532-1.82-1.07-2.67-1.13-4.32-.976-7.18-.613-.846.1-1.69.2-2.56.301-3.26.516-3.26.516-6.44 1.39-1.28 1.98-1.28 1.98-2 4h-2l-.812 2.06c-.798 1.97-1.63 3.93-2.5 5.88-3.92 9.11-6.88 18.6-9.69 28.1-4.94 16.6-10.2 33-15.8 49.3-1.92 5.66-3.59 11.4-5.21 17.1-1.94 6.87-3.93 13.7-6 20.6h-3c-1.75-3.09-2.4-5.74-2.88-9.25-.744-4.82-1.77-9.47-3-14.2-2.33-8.94-3.99-18-5.66-27.1-.637-3.4-1.32-6.79-2-10.2-.413-2.05-.815-4.11-1.21-6.17l-.69-3.54-.685-3.52c-.649-3.17-1.44-6.3-2.25-9.43-2.09-8.25-3.61-16.6-5.19-25a4009 4009 0 0 0-1.82-9.55l-.404-2.16c-.843-4.41-1.96-8.67-3.22-13-.349-2.06-.662-4.12-.938-6.19-.775-5.28-1.86-10.4-3.21-15.5-3.08-11.9-5.47-23.6-7.21-35.8-.935-5.52-2.62-10.7-4.52-15.9l-.74-2.09c-1.51-4.01-3.02-6.84-6.38-9.53-4.72-1.72-7.7-.646-12.1 1.31-5.09 4.46-6.92 12.1-8.93 18.4l-.776 2.38c-.749 2.31-1.49 4.62-2.23 6.94l-1.17 3.64a258.19 258.19 0 0 0-5.12 18.6c-.768 2.98-1.73 5.84-2.71 8.75-1.29 4.24-2.54 8.49-3.79 12.7-.255.86-.51 1.72-.773 2.6-.228.774-.456 1.55-.69 2.34a74.915 74.915 0 0 1-1.74 4.78c-1 2.53-1.76 5.02-2.48 7.64-.412 1.48-.412 1.48-.83 3l-.878 3.2c-2.49 8.99-5.02 18-7.62 26.9-.29 1-.579 2.01-.878 3.04l-.829 2.85-.722 2.49c-.803 2.51-1.77 4.93-2.76 7.37-.552 2.03-1.07 4.08-1.56 6.12-.725 3.01-1.46 5.93-2.44 8.88-2.72-.593-4.51-1.33-6.19-3.61-1.25-2.2-2.38-4.43-3.5-6.7l-1.3-2.55c-3.59-7.11-6.95-14.3-10.3-21.6-8.34-19-8.34-19-22.7-32.9-5.03-1.63-10.1-1.56-14.9.72l-2.12 1.62-2.19.937c-2.35 1.38-2.66 2.6-3.81 5.06-11.7 22.8-11.7 22.8-18 27-2.91.23-5.73.35-8.65.38l-2.57.05c-2.72.054-5.43.094-8.15.133-2.71.044-5.42.09-8.13.143-1.69.032-3.37.059-5.06.08-3.96.07-7.55.384-11.4 1.21-3.88.149-7.75 0-11.6-.125l-3.18-.031c-7.63-.254-7.63-.254-10.3-3.02l-.914-2.82-1.07-2.97-.93-3.03-.93-2.62c-7.02-20.9-11.1-47.5-7.07-69.4.16-1.64.307-3.29.438-4.94.408-4.23 1.34-7.98 2.56-12.1.468-2.23.925-4.46 1.38-6.69 2.5-11.8 6.36-23 12.6-33.3.65-1.58.65-1.58 1.31-3.19 1.67-4.04 3.92-7.66 6.2-11.4 1.28-2.1 2.49-4.22 3.67-6.37 1.5-2.54 2.64-4.16 4.81-6.06 2.15-2.02 3.86-3.77 5.38-6.31 4.06-6.71 9.68-11.7 15.6-16.7 1.23-1.06 2.46-2.12 3.69-3.19 2.73-2.33 5.5-4.59 8.31-6.81l2.5-2 2.5-2c.722-.64 1.44-1.28 2.19-1.94 3.29-2.42 6.73-4.07 10.4-5.84 2.6-1.25 2.6-1.25 5.48-3.35 3.15-2.01 6.04-3 9.59-4.09 2.36-.783 4.54-1.73 6.79-2.78 4.75-2.15 9.55-3.6 14.6-5l4.29-1.26c1.57-.455 3.14-.91 4.71-1.36l2.23-.662c11.2-3.17 22.6-2.93 34.1-2.95 2.69-.01 5.39-.04 8.08-.072 14.8-.091 28.5 1.92 42.7 5.81.771.2 1.54.4 2.34.605 4.72 1.26 9.06 2.91 13.5 4.89 1.31.476 2.62.946 3.93 1.41 4.3 1.59 8.17 3.73 12.1 6.03.668.382 1.34.764 2.03 1.16 1.33.76 2.66 1.53 3.98 2.29 1.27.73 2.56 1.45 3.85 2.15 3.59 1.96 6.3 3.98 9.09 6.96 2.93 2.43 5.95 4.72 9 7l2.75 2.06c2.24 1.18 2.24 1.18 4.75.438 2.6-1.42 2.6-1.42 4.69-3.69 3.89-3.89 8.23-6.78 12.8-9.81.577-.39 1.15-.778 1.75-1.18 9.97-6.68 20-11.7 31.3-15.8l2.24-.828c33.6-12.3 74.6-14.2 109-3.17l2.66.842c16.5 5.33 31.4 12.8 45.3 23.2.926.678 1.85 1.36 2.8 2.05 4.58 3.44 4.58 3.44 6.2 4.95v2c.558.23 1.12.46 1.69.699 2.92 1.65 4.91 3.71 7.25 6.11.834.852 1.67 1.7 2.53 2.58.837.86 1.67 1.72 2.54 2.61.84.837 1.68 1.67 2.54 2.54 18.5 18.5 18.5 18.5 18.5 25.5h2c2.64 5.55 5.27 11.1 7.9 16.7.883 1.86 1.78 3.72 2.67 5.58 3.19 6.73 5.41 13.6 7.43 20.7.278.897.557 1.79.844 2.72 7.23 25.2 5.97 54.8 1.16 80.3-.123.672-.246 1.34-.372 2.04-1.58 8.52-3.94 16.7-6.63 25 9.5.817 18.9 1.1 28.4.875 6.09-.085 11.7.715 17.6 2.12 1.06-3.47 1.12-6.64 1.1-10.3l-.009-3.9-.025-4.27-.014-4.5c-.01-3.23-.023-6.46-.038-9.69-.023-5.11-.036-10.2-.048-15.3-.033-14.5-.075-29-.138-43.6-.034-8.02-.058-16-.07-24.1-.007-4.24-.019-8.49-.045-12.7-.024-3.99-.034-7.98-.034-12-.003-1.46-.01-2.93-.023-4.39-.017-2-.014-4-.01-6l-.012-3.39c.42-3.44 1.25-5.27 3.37-7.99 3.27-2.36 6.32-2.25 10.3-2.25l3.91-.013 4.28.017a3364.859 3364.859 0 0 1 16.81.007c4.27.009 8.54.007 12.8.007 7.17 0 14.3.01 21.5.023 8.3.016 16.6.021 24.9.02 7.98 0 16 .005 23.9.013 3.4.004 6.8.005 10.2.006 4 .001 7.99.007 12 .017 1.47.003 2.94.004 4.41.004 2 0 4 .006 6 .012l3.4.005c2.62.13 2.62.13 4.62 1.13v-146l-34.2.141c-7.14.02-14.3.04-21.4.055-11.3.024-22.7.052-34 .106-8.25.04-16.5.066-24.8.075-4.37.005-8.74.017-13.1.046-4.11.027-8.23.036-12.3.03-1.51 0-3.02.009-4.53.024-2.06.02-4.12.015-6.18.004l-3.5.011c-3.6-.602-4.74-1.63-6.94-4.49-1.1-3.3-1.12-5.72-1.11-9.2v-3.93l.015-4.33.005-4.55c.003-3.27.01-6.53.018-9.8.013-5.16.02-10.3.024-15.5.011-10.9.03-21.9.051-32.8.022-11.8.043-23.6.053-35.5.005-5.13.015-10.3.029-15.4.007-3.19.01-6.37.013-9.56.002-1.48.005-2.97.01-4.45.008-2.02.008-4.03.009-6.05l.006-3.43c.166-2.46.166-2.46-1.12-3.52a90.517 90.517 0 0 0-5.14-.127l-3.38-.008-3.74.006-3.91-.005c-3.55-.005-7.11-.003-10.7 0-3.72.003-7.44 0-11.2-.001-6.26-.002-12.5 0-18.8.005-7.22.005-14.4.004-21.7-.002-6.2-.004-12.4-.005-18.6-.002-3.7.001-7.41.001-11.1-.002-4.14-.003-8.28.001-12.4.007l-3.68-.006c-6.64.016-13.1.312-19.7 1.14l-.007 2.44c-.06 19.6-.135 39.2-.228 58.8-.045 9.47-.084 18.9-.111 28.4-.023 8.26-.056 16.5-.102 24.8-.024 4.37-.043 8.74-.049 13.1-.006 4.11-.026 8.23-.057 12.3-.008 1.51-.012 3.02-.01 4.53.001 2.06-.015 4.12-.037 6.18l-.014 3.5c-.436 3.34-.845 4.73-3.38 6.94-2.82.505-2.82.505-6.31.512l-1.95.02c-2.16.018-4.32.008-6.47-.002a1863.391 1863.391 0 0 1-17.24.045c-4.39-.001-8.78.021-13.2.042-8.31.035-16.6.051-24.9.06-12.2.013-24.4.05-36.6.094l-2.71.01-5.35.018c-5.23.018-10.5.03-15.7.035-3.25.003-6.5.011-9.74.02-1.51.002-3.02.004-4.54.003-2.06 0-4.11.005-6.17.011l-3.49.004c-2.5-.164-2.5-.164-3.57 1.13-.113 2.01-.157 4.02-.174 6.03l-.04 3.91-.016 2.11c-.016 2.17-.04 4.34-.065 6.51-.07 6.17-.13 12.3-.182 18.5-.031 3.77-.073 7.54-.12 11.3-.016 1.44-.028 2.88-.037 4.31-.012 2.01-.037 4.02-.063 6.03l-.03 3.47c-.273 2.82-.273 2.82-2.27 5.82-2.24.47-2.24.47-4.88.5l-2.62.094c-3.63-.861-4.52-2.48-6.51-5.59-.378-2.67-.53-4.92-.487-7.59l-.011-2.26c-.008-2.46.014-4.92.036-7.37.002-1.71.003-3.42.003-5.14.003-3.58.02-7.17.046-10.7.034-4.59.042-9.19.04-13.8.001-3.53.012-7.07.026-10.6.007-1.69.01-3.39.012-5.08.005-2.37.022-4.73.043-7.09l-.002-2.13c.048-3.63.22-5.1 2.29-8.2 3.87-2.04 7.16-2.25 11.5-2.24l3.97-.008 4.34.021h4.58c4.14-.001 8.28.01 12.4.025 4.33.012 8.66.013 13 .016 8.2.006 16.4.022 24.6.042 9.33.023 18.7.034 28 .044 19.2.02 38.4.056 57.6.1l-.003-2.46c-.022-19.7-.039-39.5-.05-59.2-.004-9.55-.011-19.1-.023-28.6-.01-8.32-.016-16.6-.018-25-.002-4.41-.005-8.82-.012-13.2-.007-4.14-.009-8.29-.007-12.4 0-1.52-.003-3.05-.006-4.57-.005-2.08-.004-4.15-.001-6.22l-.003-3.53c.123-2.71.123-2.71 1.12-4.71 19.2-4.52 41.1-2.2 60.8-2.24zm-60.8 4.24 1 2zm-438 405 1 3zm551 78v1h7v-1h-7z"/><path fill="#C5392B" d="M689 826c2.57 2.22 3.41 3.67 3.89 7.02l.393 2.54.408 2.81c2 12.6 4.72 25 7.49 37.5 1.72 7.75 3.29 15.5 4.38 23.3.638 4.12 1.62 8.15 2.59 12.2.974 4.17 1.85 8.36 2.72 12.6 1.49 7.17 3.09 14.3 4.75 21.4 1.58 6.81 2.89 13.6 3.85 20.5.973 5.83 2.55 11.5 4.03 17.2 1.97 7.64 3.6 15.3 4.93 23.1 1.06 6.17 2.21 12.3 3.5 18.4l.441 2.22c1.09 5.04 2.96 8.75 5.62 13.2v2c5.09 1.8 9.41 3.24 14.8 2.44 9.44-5.38 12.6-24.2 15.7-33.9.576-1.79 1.15-3.59 1.73-5.38 3.2-9.99 6.32-20 9.04-30.1.885-3.28 1.83-6.26 3.2-9.39 1.62-3.86 2.69-7.66 3.75-11.7 1.36-5.07 2.93-10.1 4.48-15.1.342-1.11.683-2.21 1.04-3.35 3.67-11.9 7.46-23.7 11.3-35.5 7.71 3.32 11 13.6 14.8 20.8 2.44 4.59 4.89 9.17 7.37 13.7l1.2 2.25c2.43 4.42 5.09 8.13 8.54 11.8 1.14 1.43 1.14 1.43 1.14 3.43.572.285 1.14.57 1.73.863 1.46.731 2.91 1.48 4.34 2.24 4.48 2.23 7.95 3.55 12.9 2.57 6.1-2.08 10.6-6.02 15-10.7 1.52-1.52 3.04-3.05 4.56-4.56l2.25-2.25 2.18-2.18c1.03-1.1 1.03-1.1 2.09-2.21 1.91-1.79 1.91-1.79 4.91-2.79 1.67-1.5 1.67-1.5 3-3v2h122c-.93 4.65-1.8 6.67-4.31 10.5-.891 1.38-.891 1.38-1.8 2.78-2.87 4.14-6.05 7.95-9.39 11.7-1.94 2.2-3.81 4.39-5.62 6.69-2.13 2.63-4.45 4.95-6.88 7.31-.887.928-1.77 1.86-2.69 2.81-2.31 2.19-2.31 2.19-4.31 2.19-.309.804-.309.804-.625 1.62-1.91 3.29-4.42 5.97-7.38 8.38h-2l-.812 1.94c-1.19 2.06-1.19 2.06-4.19 3.06l-.875 1.75c-1.84 3.69-4.59 6.51-8.31 8.31-2.39 1.24-2.65 2.54-3.81 4.94-4.33 4.78-4.33 4.78-8 6l-1 3h-2l-2 4h-2l-1 3c-2.44 2.69-2.44 2.69-5 5h-2l-2 4h-2l-1 3c-1.49 1.26-2.98 2.52-4.51 3.73-1.81 1.55-3.08 3.36-4.49 5.27h-2l-2 4h-2l-2 4h-2c-.227.557-.454 1.11-.688 1.69-1.69 2.97-3.84 4.96-6.31 7.31-.846.887-1.69 1.77-2.56 2.69-2.44 2.31-2.44 2.31-4.62 3.38-2.37 1.23-2.73 2.55-3.81 4.94-1.5 1.75-1.5 1.75-3 3h-2l-.812 1.94c-1.19 2.06-1.19 2.06-4.19 3.06-1.21 2-1.21 2-2 4h-2l-.688 1.75c-1.65 2.82-3.75 4.25-6.31 6.25-.557.743-1.11 1.49-1.69 2.25-.433.577-.866 1.16-1.31 1.75h-2l-2 4h-2l-1 3c-1.71 1.65-1.71 1.65-3.81 3.38-3.15 2.67-5.62 5.39-8.19 8.62-1.72 1.52-3.49 2.98-5.26 4.44-1.72 1.54-3.12 3.13-4.55 4.93-.722.866-1.44 1.73-2.19 2.62h-2l-2 4h-2l-.688 1.69c-2.27 4-4.93 6.85-9.31 8.31-.289.577-.577 1.16-.875 1.75-1.52 3.04-3.67 4.9-6.12 7.25l-1.59 1.65c-1.43 1.49-2.92 2.92-4.41 4.35h-2c-.391.899-.391.899-.789 1.82-1.29 2.33-2.51 3.48-4.59 5.12-2.98 2.43-5.23 5.05-7.62 8.06h-2l-.812 1.94c-1.19 2.06-1.19 2.06-4.19 3.06l-1 2-1 2-3 1c-1.21 2-1.21 2-2 4h-2l-.75 1.88c-1.49 2.53-2.69 2.84-5.25 4.12l-.938 1.88c-1.5 2.99-3.25 4.34-6.06 6.12-3.93.563-5.5.353-8.77-1.97-.932-.909-1.86-1.82-2.82-2.76-.513-.493-1.03-.986-1.55-1.49-1.63-1.58-3.24-3.18-4.85-4.78-1.04-1.03-2.09-2.05-3.14-3.08-3.12-3.08-6.21-6.18-9.3-9.3-1.06-1.06-2.12-2.13-3.18-3.19-1.94-1.94-3.87-3.89-5.8-5.84-2.52-2.54-5.05-5.07-7.58-7.6-.742-.744-1.48-1.49-2.25-2.25-3.08-3.08-6.17-6.14-9.26-9.21-3.51-3.49-7.02-6.98-10.5-10.5-1.86-1.85-3.71-3.69-5.57-5.53-2.68-2.66-5.36-5.32-8.03-7.99l-2.54-2.51-2.32-2.32a777.53 777.53 0 0 1-2.05-2.04c-1.45-1.69-1.45-1.69-1.45-3.69l-1.79-.836c-4.86-2.56-8.7-6.47-12.2-10.6-4.42-5.1-9.2-9.82-14-14.6l-4.95-4.92c-4.68-4.66-9.37-9.31-14.1-14-2.88-2.86-5.76-5.72-8.64-8.59a505.63 505.63 0 0 0-3.29-3.26 978.09 978.09 0 0 1-4.57-4.54c-.867-.86-1.73-1.72-2.63-2.61-1.85-2.08-1.85-2.08-1.85-4.08l-1.66-.668c-3.08-1.75-5.34-4.12-7.78-6.64l-1.41-1.44c-1.39-1.41-2.77-2.83-4.15-4.25l-5-5-5.46-5.49c-1.58-1.59-3.16-3.17-4.73-4.75-1.08-1.08-2.15-2.16-3.23-3.25-5.5-5.54-11-11-16.9-16.1-2.27-2.01-4.23-4.22-6.2-6.51-3.07-3.49-6.19-6.53-9.78-9.47-2.45-2.17-4.48-4.66-6.59-7.15-2.02-2.26-4.15-4.38-6.33-6.5-9.75-9.47-17.9-20-24.7-31.8v-1l2.43-.076c7.84-.245 7.84-.245 15.7-.505l4.3-.146 2.18-.074c4.63-.153 9.27-.262 13.9-.348l3.49-.084c2.15-.052 4.3-.09 6.46-.111 8.99-.248 16.9-2.36 23.6-8.66 1.08-.99 1.08-.99 2.19-2 1.75-1.93 2.69-3.67 3.81-6l2-1c.973-1.88 1.94-3.76 2.86-5.66 1.18-2.42 2.38-4.83 3.64-7.21.382-.74.763-1.48 1.16-2.24 1.55-2.17 2.9-2.9 5.34-3.88v2h2c.536 1.07 1.07 2.14 1.62 3.25.371.741.743 1.48 1.12 2.25.837 1.68 1.67 3.36 2.5 5.04a731.3 731.3 0 0 0 9.5 18.5c.42.798.84 1.6 1.27 2.42 2.27 4.3 4.55 8.6 6.84 12.9l1.4 2.63c.892 1.68 1.79 3.35 2.69 5.03.4.753.8 1.51 1.21 2.28.533.997.533.997 1.08 2.01.759 1.67.759 1.67.759 3.67.557.268 1.11.536 1.69.812 2.31 1.19 2.31 1.19 4.44 2.75 5.33 2.66 12.2 3.29 17.9 1.44l2-.625c8.89-6.11 11.4-19.1 13.6-28.9 1.47-6.64 3.21-13 5.44-19.4 4.86-14.7 9.19-29.5 13.3-44.5.231-.841.463-1.68.701-2.55.286-1.04.286-1.04.578-2.11.919-3.29 1.98-6.46 3.23-9.64 2.28-6.12 3.87-12.4 5.44-18.7l.602-2.39.526-2.14c.662-2.15 1.56-4.04 2.62-6.02z"/><path fill="#D54130" d="M557 703c-.998 2.99-1.75 3.95-4 6l3-1c2.23.05 2.23.05 4.62.312l2.41.238 1.96.449 1 2 2 .438 2 .562c.495 1.49.495 1.49 1 3l3.38.25c1.2.247 2.39.495 3.62.75 1.31 2 1.31 2 2 4l2 1 1-7 2 1h3c1.57.303 3.13.639 4.69 1l2.45.562 1.86.438 2-4h3c2.41-.527 4.66-1.22 7-2l1-2c2.68-.797 4.46-1.14 7.19-.438.598.144 1.2.289 1.81.438l2-2c3.79 1 6.72 1.81 10 4 2.33.381 4.66.713 7 1l2.06.562c2.66.601 5.22.499 7.94.438v4l2.81-.188c3.19.188 3.19.188 5.06 1.69.371.495.743.99 1.12 1.5.454-.495.908-.99 1.38-1.5 1.62-1.5 1.62-1.5 3.62-1.5l1-3c2.38.188 2.38.188 5 1l.938 2.44c.853 2.91.853 2.91 4.19 3.88l2.88.688 1 5-3 1 1 5 6-1-1-3c2.91-.81 4.46-1.22 7.31-.062.557.35 1.11.7 1.69 1.06l-2 1 1 3c1.07-.351 2.14-.701 3.25-1.06 4.67-1.17 4.67-1.17 7.75.062v-2l-4-1c2.49-1.25 3.41-.777 6 0v3l3.81.188c3.43.407 3.92.473 6.19 3.31 1 2.5 1 2.5 1 3.5.804.763 1.61 1.53 2.44 2.31 2.36 2.47 3.2 3.41 3.56 6.69h4v3h5v6c4.64.918 4.64.918 9.25.375l1.75-.375c1.75 1.19 1.75 1.19 3 3v4l2-1c2.12.438 2.12.438 4 1v3l2 1v2h3v2c1.98.027 3.96.046 5.94.063l3.34.035c2.64.215 2.64.215 3.72-1.1 1.94.2 3.87.41 5.8.69 2 .28 4 .458 6.01.622 3.19.688 3.19.688 5.12 2.75.351.639.701 1.28 1.06 1.94l-1 1 3 1 .188 3.25c.971 4.48 2.26 5.11 5.81 7.75v4l6 1 2 6 1-2 2-1 2 1v7l-2 1 3 1v3l2 1h-2v2h2l1 1c1.66.364 3.33.7 5 1v2l2 1-1 6h10l-1 3 7 2v7h-2l-1 3-1-1-1 4 7-1 2-7h1c.336 1.46.669 2.92 1 4.38l.562 2.46c.438 2.16.438 2.16.438 4.16h5c-.351-1.09-.701-2.19-1.06-3.31-.938-3.69-.938-3.69.063-6.69l1 3 1-2h2c1.12 3.75 1.12 3.75 0 6h9l1-3c2.06-1.19 2.06-1.19 4-2l-3-1-1-6 3-2h-4l-1 7h-2v2l-5-1c-1.12-6.62-1.12-6.62 0-10l2-1c.652-2.02.652-2.02 1-4l-5 1v2l-2 1c.206.763.412 1.53.625 2.31.375 2.69.375 2.69-1.62 5.69h-3c-.575-3.73-1-7.21-1-11l-2-2 4-2-1-7-1 2-3 1-2 3v-4h-5c-1.63-4.12-2.26-6.71-1-11h4l1 2v-6l3.31-.312c3.59-.31 3.59-.31 5.19-2.19 2.38-2.38 5.25-2.1 8.5-2.5 2.37-.6 2.37-.6 4-2 .656-2.53.656-2.53 1-5 3.07-1.53 5.7-.55 9 0v2l-1 1c.287 2.01.619 4.01 1 6l4-1v-2h2v-2h3v-4c2.88-.625 2.88-.625 6-1l2 2-2.44.938c-2.45.826-2.45.826-3.56 2.06.286 1.68.618 3.34 1 5l4-1 2 4c-1.48.99-1.48.99-3 2l1 3 7-1-.063-3.88c-.063-3.88-.063-3.88 1.06-6.12h-2c-.125-4.75-.125-4.75 1-7l10 2 1-2v6c1.13-.186 2.27-.371 3.44-.562 1.18-.144 2.35-.29 3.56-.438l1 1c1.68-.286 3.34-.618 5-1l1 4h2l1 5h2v-2h2v2l4-2v5l-2-1v3c3.04 3.05 3.04 3.05 7 4l-1 4h3c3.12.812 3.12.812 6 2 1 3 1 3 0 6h-2l1 10h-3v-2l-3 3 3 1c.588 1.71 1 3.18 1 5l1.56 1.25c.474.578.949 1.15 1.44 1.75a107.8 107.8 0 0 1-1 5l2 3-1.44 1.25c-1.74 1.95-1.98 3.25-2.56 5.75l-2 1h3c.544 3.06 1 5.89 1 9 2.91 1.26 4.8 2 8 2l-2 6h-5l-1 2h10l-2 1v8c.282 2.53.577 5.06.879 7.59.121 2.41.121 2.41-.879 5.41-2.88.188-2.88.188-6 0l-2-3-3 2c-.578-.351-1.16-.701-1.75-1.06-2.61-1.09-3.64-.868-6.25.062l1 2-2 2-1 3c-4.77.954-9.16 1.08-14 1h-3c-2.34-.317-4.67-.648-7-1v-1c-1.58-.054-3.17-.093-4.75-.125l-2.67-.07c-2.69.204-4.28.83-6.58 2.2l-1-1-2 2v-2h-2v2h-3l-1 5h-3c-2.81.512-5.61 1.08-8.41 1.66-2.59.34-2.59.34-5.59-.66v-3l4-1c-.908-.29-1.82-.578-2.75-.875-3.25-1.12-3.25-1.12-5.44-2.25-1.93-1.09-1.93-1.09-4.81-.875-2.68-2.29-3.87-3.62-5-7-.095-1.96-.13-3.92-.125-5.88l-.008-3.12c.123-2.78.503-5.3 1.13-8.01l-3 1c-1.54.068-3.08.085-4.62.062l-2.41-.027-1.96-.035h-1l-2-1v-6l-5-2v-2l-7-1-1 2 1 2h-3v7c-3.83 1.06-7.61 1.38-11.6 1.72-2.25.26-4.29.554-6.44 1.28-1.28 1.98-1.28 1.98-2 4h-2l-.812 2.06c-.798 1.97-1.63 3.93-2.5 5.88-3.92 9.11-6.88 18.6-9.69 28.1-4.94 16.6-10.2 33-15.8 49.3-1.92 5.66-3.59 11.4-5.21 17.1-1.94 6.87-3.93 13.7-6 20.6h-3c-1.75-3.09-2.4-5.74-2.88-9.25-.744-4.82-1.77-9.47-3-14.2-2.33-8.94-3.99-18-5.66-27.1-.637-3.4-1.32-6.79-2-10.2-.413-2.05-.815-4.11-1.21-6.17l-.69-3.54c-.227-1.16-.452-2.33-.685-3.52-.649-3.17-1.44-6.3-2.25-9.43-2.09-8.25-3.61-16.6-5.19-25a4009 4009 0 0 0-1.82-9.55l-.404-2.16c-.843-4.41-1.96-8.67-3.22-13-.349-2.06-.662-4.12-.938-6.19-.775-5.28-1.86-10.4-3.21-15.5-3.08-11.9-5.47-23.6-7.21-35.8-.935-5.52-2.62-10.7-4.52-15.9l-.74-2.09c-1.51-4.01-3.02-6.84-6.38-9.53-4.72-1.72-7.7-.646-12.1 1.31-5.09 4.46-6.92 12.1-8.93 18.4l-.776 2.38c-.749 2.31-1.49 4.62-2.23 6.94-.385 1.2-.77 2.4-1.17 3.64a258.19 258.19 0 0 0-5.12 18.6c-.768 2.98-1.73 5.84-2.71 8.75-1.29 4.24-2.54 8.49-3.79 12.7-.255.859-.51 1.72-.773 2.6-.228.774-.456 1.55-.69 2.34a74.915 74.915 0 0 1-1.74 4.78c-1 2.53-1.76 5.02-2.48 7.64-.412 1.48-.412 1.48-.83 3l-.878 3.2c-2.49 8.99-5.02 18-7.62 26.9-.29 1-.579 2.01-.878 3.04l-.829 2.85-.722 2.49c-.803 2.51-1.77 4.93-2.76 7.37-.552 2.03-1.07 4.08-1.56 6.12-.725 3.01-1.46 5.93-2.44 8.88-2.72-.593-4.51-1.33-6.19-3.61-1.25-2.2-2.38-4.43-3.5-6.7l-1.3-2.55c-3.59-7.11-6.95-14.3-10.3-21.6-8.34-19-8.34-19-22.7-32.9-5.03-1.63-10.1-1.56-14.9.719-1.05.804-1.05.804-2.12 1.62-.722.309-1.44.619-2.19.938-2.35 1.38-2.66 2.6-3.81 5.06-11.7 22.8-11.7 22.8-18 27-2.91.23-5.73.349-8.65.379l-2.57.051c-2.72.054-5.43.094-8.15.132-2.71.044-5.42.091-8.13.143-1.69.032-3.37.06-5.06.08-3.96.07-7.55.385-11.4 1.21-3.88.15-7.75 0-11.6-.124l-3.18-.032c-7.63-.254-7.63-.254-10.3-3.02l-.914-2.82-1.07-2.97-.93-3.03c-.46-1.3-.46-1.3-.93-2.62-7.02-20.9-11.1-47.5-7.07-69.4.16-1.64.307-3.29.438-4.94.408-4.23 1.34-7.98 2.56-12.1.468-2.23.925-4.46 1.38-6.69 2.5-11.8 6.36-23 12.6-33.3.433-1.05.866-2.1 1.31-3.19 1.67-4.04 3.92-7.66 6.2-11.4 1.28-2.1 2.49-4.22 3.67-6.37 1.5-2.54 2.64-4.16 4.81-6.06 2.15-2.02 3.86-3.77 5.38-6.31 4.06-6.71 9.68-11.7 15.6-16.7 1.23-1.06 2.46-2.12 3.69-3.19 2.73-2.33 5.5-4.59 8.31-6.81 1.24-.99 1.24-.99 2.5-2 1.24-.99 1.24-.99 2.5-2 1.14-.99 1.14-.99 2.31-2 4.12-3.07 8.45-6 13.7-6zm-87 135 1 3z"/><path fill="#CC3C2E" d="M612 740c2.51 1.26 2.87 2.5 4 5h2v2l6 1 2-4 3 1v2h-3l.625 1.88L627 751c-3 3-3 3-5 4l1 2c2.48-.99 2.48-.99 5-2l-1-2 2-2v2l6-2-1-2 1.94-.688c2.33-1.17 2.33-1.17 2.81-3.94l.25-2.38c1.94-.562 1.94-.562 4-1 1 1 1 1 1.06 4.06l-.063 2.94c2.76.597 5.16 1 8 1l1-2 1 5h3l1 3 1-3 1 5c-1.62.054-3.25.093-4.88.125l-2.74.07c-2.38-.195-2.38-.195-4.38-2.2l-3 1c.31 1.92.623 3.83.938 5.75l.527 3.23c.422 2.38.907 4.68 1.54 7.02h2v-7l5-1 .875 3.38c.817 3.63.817 3.63 3.12 5.62 2.07.1 4.06-.067 6.12-.223l1.88.223 2 3c3.57.736 3.57.736 7 1l1 3h-2v2h-2v3l4 2-4 1h5v2l-4-1 1 4 3-1 2 1c-.872 8.02-3.35 15.4-6.25 22.9-1.17 3.21-2.11 6.49-3.07 9.77-.517 1.74-1.09 3.46-1.68 5.17-1.28 4-2.24 8.05-3.22 12.1-.796 3.06-1.77 6-2.78 9-1.29 4.24-2.54 8.49-3.79 12.7-.255.86-.51 1.72-.773 2.6-.228.774-.456 1.55-.69 2.34a74.915 74.915 0 0 1-1.74 4.78c-1 2.53-1.76 5.02-2.48 7.64-.412 1.48-.412 1.48-.83 3l-.878 3.2c-2.49 8.99-5.02 18-7.62 26.9-.29 1-.579 2.01-.878 3.04l-.829 2.85-.722 2.49c-.803 2.51-1.77 4.93-2.76 7.37-.552 2.03-1.07 4.08-1.56 6.12-.725 3.01-1.46 5.93-2.44 8.88-2.72-.593-4.51-1.33-6.19-3.61-1.25-2.2-2.38-4.43-3.5-6.7l-1.3-2.55c-3.59-7.11-6.95-14.3-10.3-21.6-8.34-19-8.34-19-22.7-32.9-5.03-1.63-10.1-1.56-14.9.72l-2.12 1.62c-.722.308-1.44.618-2.19.937-2.35 1.38-2.66 2.6-3.81 5.06-11.7 22.8-11.7 22.8-18 27-2.91.23-5.73.35-8.65.38l-2.57.05c-2.72.054-5.43.094-8.15.133-2.71.044-5.42.09-8.13.143-1.69.032-3.37.058-5.06.08-3.96.07-7.55.384-11.4 1.21-3.88.149-7.75 0-11.6-.125l-3.18-.031c-7.63-.254-7.63-.254-10.3-3.02l-.914-2.82-1.07-2.97-.93-3.03c-.46-1.3-.46-1.3-.93-2.62-7.02-20.9-11.1-47.5-7.07-69.4.16-1.64.307-3.29.438-4.94.408-4.23 1.34-7.98 2.56-12.1.468-2.23.925-4.46 1.38-6.69 2.5-11.8 6.36-23 12.6-33.3 1.06-2.31 2.02-4.65 3-7l1-2h3c-1.63 6.01-3.27 12-5 18 1.49.495 1.49.495 3 1l1-2 1 1 1-5 2 4c2.33.042 4.67.04 7 0l1-1-3-1c4.66-.838 8.37-1.02 13 0l1-2h3l1 2h5l1.25-3.31c1.41-3.22 2.47-5.14 5.75-6.69 3.75-.188 3.75-.188 7 0l1 2v-7l6-1v3h3l1 2 2-6 11 1 1-3 6 1v-2c.98-1.02 1.98-2.02 3-3l1-2h2v-2c3.23-3.18 6.35-3.62 10.8-4.19 1.17-.16 2.34-.317 3.55-.48.892-.11 1.78-.22 2.7-.332l1 6h5l-1-5h2l1-7c1.81-.688 1.81-.688 4-1 1.56 1.38 1.56 1.38 3 3l3 1 1-6zm-142 98 1 3z"/><path fill="#5296C9" d="m969 429 4.81-.012c7.51-.02 15-.034 22.5-.042 8.63-.01 17.3-.036 25.9-.077 6.71-.03 13.4-.045 20.1-.048 3.99-.002 7.99-.011 12-.036 3.74-.024 7.48-.028 11.2-.018 2.02.001 4.05-.018 6.07-.038l3.65.021 3.17-.007c3.52.642 4.67 1.58 6.71 4.49.508 2.94.508 2.94.519 6.44l.023 1.95c.02 2.16.012 4.31.004 6.47.009 1.55.02 3.09.031 4.64.028 4.2.031 8.4.03 12.6.004 4.39.03 8.78.052 13.2.041 8.31.061 16.6.074 24.9.016 9.46.055 18.9.095 28.4.082 19.5.137 38.9.172 58.4l2.39.007c19.2.06 38.3.135 57.5.228 9.27.045 18.5.085 27.8.111 8.08.023 16.2.057 24.2.102 4.28.024 8.55.043 12.8.05 4.03.005 8.06.025 12.1.056 1.48.009 2.95.012 4.43.01 2.02-.001 4.04.018 6.06.037l3.42.014c3.95.465 6.7 1.68 10.3 3.38.047 22.7.082 45.3.104 68 .01 10.5.024 21 .047 31.6.02 9.16.033 18.3.038 27.5.002 4.85.008 9.71.023 14.6.013 4.57.018 9.13.015 13.7 0 1.68.004 3.36.012 5.04.01 2.29.008 4.57.002 6.86l.006 3.88c-.246 2.96-.246 2.96-2.25 4.96-2.96.218-5.82.311-8.78.319l-2.77.03c-3.06.032-6.11.048-9.17.065-2.16.019-4.32.038-6.49.059-5.75.052-11.5.09-17.2.128-4.53.031-9.05.071-13.6.112-19.5.174-39 .309-58.5.275l-3.58-.005c-5.66-.01-11.3-.025-17-.051l-6.07-.016-2.77-.02-2.57-.003-2.21-.01c-2.81.144-5.52.615-8.29 1.12l-.01 2.45c-.081 19.6-.173 39.2-.277 58.9-.05 9.49-.097 19-.134 28.5-.033 8.27-.073 16.5-.121 24.8-.026 4.38-.047 8.76-.06 13.1-.014 4.12-.036 8.24-.065 12.4-.009 1.51-.015 3.03-.017 4.54-.003 2.06-.018 4.12-.037 6.19l-.017 3.5c-.262 2.7-.262 2.7-2.26 4.7-2.44.303-2.44.303-5.49.379l-3.33.104-3.49.08c-2.27.06-4.53.124-6.8.19l-3.06.073c-2.82.108-2.82.108-5.51.714-2.56.506-4.58.183-7.12-.247-5.01-.669-10.1-.68-15.1-.856l-3.52-.13c-2.85-.106-5.7-.209-8.54-.308v2l-10 1v-2l-3.29.045c-10.4.14-20.8.273-31.1.398-5.33.065-10.7.132-16 .205-23.9.326-47.7.534-71.6-.648-1.59-3.18-1.34-5.46-1-9 1.13-2.35 1.13-2.35 2.52-4.75.691-1.2.691-1.2 1.4-2.42l1.08-1.83c16.1-.023 32.2-.041 48.4-.052 7.49-.005 15-.012 22.5-.023 6.53-.01 13.1-.017 19.6-.019 3.45-.001 6.9-.004 10.4-.012 13.3-.025 26.5-.035 39.7.888 5.68.355 11.3.236 17 .091 6.05-.08 11.6.732 17.5 2.13 1.06-3.47 1.12-6.64 1.1-10.3l-.009-3.9-.025-4.27-.014-4.5c-.01-3.23-.023-6.46-.038-9.69-.023-5.11-.036-10.2-.048-15.3-.033-14.5-.075-29-.138-43.6-.034-8.02-.058-16-.07-24.1-.007-4.24-.019-8.49-.045-12.7-.024-3.99-.034-7.98-.034-12-.003-1.46-.01-2.93-.023-4.39-.017-2-.014-4-.01-6l-.012-3.39c.42-3.44 1.25-5.27 3.37-7.99 3.27-2.36 6.32-2.25 10.3-2.25l3.91-.012c1.43.005 2.85.01 4.28.017a3364.859 3364.859 0 0 1 16.81.007c4.27.009 8.54.007 12.8.007 7.17 0 14.3.01 21.5.023 8.3.016 16.6.02 24.9.02 7.98 0 16 .005 23.9.013 3.4.004 6.8.005 10.2.006 4 0 7.99.007 12 .017 1.47.003 2.94.004 4.41.004 2 0 4 .005 6 .012l3.4.005c2.62.13 2.62.13 4.62 1.13v-146l-34.2.141c-7.14.02-14.3.04-21.4.055-11.3.024-22.7.052-34 .106-8.25.04-16.5.066-24.8.074-4.37.006-8.74.018-13.1.047-4.11.027-8.23.036-12.3.03-1.51 0-3.02.009-4.53.024-2.06.02-4.12.015-6.18.004l-3.5.011c-3.6-.602-4.74-1.63-6.94-4.49-1.1-3.3-1.12-5.72-1.11-9.2v-3.93l.015-4.33.005-4.55c.003-3.27.01-6.53.018-9.8.013-5.16.02-10.3.024-15.5.011-10.9.03-21.9.051-32.8.022-11.8.043-23.6.053-35.5.005-5.13.015-10.3.029-15.4.007-3.19.01-6.37.013-9.56.002-1.48.005-2.97.01-4.45.008-2.02.008-4.03.009-6.05l.006-3.43c.166-2.46.166-2.46-1.12-3.52a90.517 90.517 0 0 0-5.14-.127l-3.38-.008-3.74.006-3.91-.005c-3.55-.005-7.11-.003-10.7 0-3.72.003-7.44 0-11.2-.001-6.26-.002-12.5 0-18.8.005-7.22.005-14.4.004-21.7-.002-6.2-.004-12.4-.005-18.6-.002-3.7.001-7.41.001-11.1-.002-4.14-.003-8.28.001-12.4.007l-3.68-.006c-6.64.016-13.1.312-19.7 1.14l-.007 2.44c-.06 19.6-.135 39.2-.228 58.8-.045 9.47-.084 18.9-.111 28.4-.023 8.26-.056 16.5-.102 24.8-.024 4.37-.043 8.74-.049 13.1-.006 4.11-.026 8.23-.057 12.3-.008 1.51-.012 3.02-.01 4.53.001 2.06-.015 4.12-.037 6.18l-.014 3.5c-.436 3.34-.845 4.73-3.38 6.94-2.82.505-2.82.505-6.31.512l-1.95.02c-2.16.018-4.32.008-6.47-.002a1863.391 1863.391 0 0 1-17.24.045c-4.39-.001-8.78.021-13.2.042-8.31.035-16.6.051-24.9.06-12.2.013-24.4.05-36.6.094l-2.71.01-5.35.018c-5.23.018-10.5.03-15.7.034-3.25.004-6.5.012-9.74.02-1.51.003-3.02.004-4.54.004-2.06 0-4.11.005-6.17.011l-3.49.004c-2.5-.164-2.5-.164-3.57 1.13-.113 2.01-.157 4.02-.174 6.03l-.04 3.91-.016 2.11c-.016 2.17-.04 4.34-.065 6.51-.07 6.17-.13 12.3-.182 18.5-.031 3.77-.073 7.54-.12 11.3-.016 1.44-.028 2.88-.037 4.31-.012 2.01-.037 4.02-.063 6.03l-.03 3.47c-.273 2.82-.273 2.82-2.27 5.82-2.24.47-2.24.47-4.88.5l-2.62.094c-3.63-.861-4.52-2.48-6.51-5.59-.378-2.67-.53-4.92-.487-7.59l-.011-2.26c-.008-2.46.014-4.92.036-7.37.002-1.71.003-3.42.003-5.14.003-3.58.02-7.17.046-10.7.034-4.59.042-9.19.04-13.8.001-3.53.012-7.07.026-10.6.007-1.69.01-3.39.012-5.08.005-2.37.022-4.73.043-7.09l-.002-2.13c.048-3.63.22-5.1 2.29-8.2 3.87-2.04 7.16-2.25 11.5-2.24l3.97-.008 4.34.021h4.58c4.14-.001 8.28.01 12.4.025 4.33.012 8.66.013 13 .016 8.2.006 16.4.022 24.6.042 9.33.023 18.7.034 28 .044 19.2.02 38.4.056 57.6.1l-.003-2.46c-.022-19.7-.039-39.5-.05-59.2-.004-9.55-.011-19.1-.023-28.6-.01-8.32-.016-16.6-.018-25-.002-4.41-.005-8.82-.012-13.2-.007-4.14-.009-8.29-.007-12.4 0-1.52-.003-3.05-.006-4.57-.005-2.08-.004-4.15-.001-6.22l-.003-3.53c.123-2.71.123-2.71 1.12-4.71 19.2-4.52 41.1-2.2 60.8-2.24zm-60.8 4.24 1 2zm113 483v1h7v-1h-7z"/><path fill="#D94636" d="M635 682c2.69-.01 5.39-.04 8.08-.072 14.8-.091 28.5 1.92 42.7 5.81.771.2 1.54.4 2.34.605 4.72 1.26 9.06 2.91 13.5 4.89 1.31.476 2.62.946 3.93 1.41 4.3 1.59 8.17 3.73 12.1 6.03.668.382 1.34.764 2.03 1.16 1.33.76 2.66 1.53 3.98 2.29 1.27.73 2.56 1.45 3.85 2.15 3.59 1.96 6.29 3.99 9.09 6.96 1.48 1.17 2.98 2.31 4.5 3.44 6.62 5.15 6.62 5.15 8.5 8.56-.375 3.69-.375 3.69-1 7l2 2-2 3c.658 3.14.658 3.14 2 6l2 1c1.06 1.94 1.06 1.94 2 4l1 2-1 2h-2v2l4 1 1-8 3 4 2.81-.562c3.19-.438 3.19-.438 6.19.562l1-2v3c3.63.2 5.87-.142 9-2 1.56 1.81 1.56 1.81 3 4l-1 3 1 2-1 2h5l-1-3c1.44-2.19 1.44-2.19 3-4v3c4.06-.451 6.4-.753 9-4l2-2h3l-.5 2.38c-.562 2.51-.562 2.51-.5 4.62l3.31-.625c3.69-.375 3.69-.375 6.69 1.62l-4 2 2 10c4-1.5 4-1.5 5-4l-3-1 2.38.062c2.61.124 2.61.124 4.62-1.06l3 1v-5h2l1-2h2c.201 3.72.152 4.77-2 8l3 1-3 3c1.62.054 3.25.093 4.88.125l2.74.07c2.57.048 2.57.048 4.38-2.2l3 1v2h16l1-3h6l-2 1 2 5c1.35-1.31 2.69-2.65 4-4v-1c2.33-.042 4.67-.04 7 0l1 1 2-4h2c.371-.474.743-.949 1.12-1.44 3.05-2.54 5.95-2.38 9.88-2.56l2 2c-.375 2.12-.375 2.12-1 4h2l1 4h6l1-4h2v10l7-1v2h3l.25 1.88c.55 2.3.55 2.3 2.75 3.25.66.29 1.32.577 2 .875l1 2c1.92.833 1.92.833 4 1l2-2c3.05 1.02 3.83 1.83 6 4h2v4l4 1-2 1 1 3-1 3h6l-1 9 3 1v2l4-1-1 8 3 1c.73 1.85.73 1.85 1.19 4.06l.48 2.22c.164.85.164.85.332 1.71l-4 2 2 1-1 9h-2l-1-1-2 10 9-1 2 3-1 2h5l-1 6h2l1 4 4 1-2-3c-.125-3.19-.125-3.19 0-6h3v2l5 2-2 1c-.144.763-.289 1.53-.438 2.31-.632 3.02-1.39 4.51-3.56 6.69h-4l1 3-2 1c.567 4.13.567 4.13 2 8l2-1c.731-2.31 1.4-4.65 2-7 3.38-.125 3.38-.125 7 0l2 2-2 1c-.467 2.13-.467 2.13-.625 4.56l-.227 2.5-.148 1.93h-2l3 3c2.97-3.97 2.97-3.97 4.38-8.62.625-2.38.625-2.38 3.69-4.69.969-.557 1.94-1.11 2.94-1.69l-1 4h2v2c7.08.503 7.08.503 13-3l3 1v3l2-6 4 1v2h-2l-1 5h2l2 4h4l1-9-3 1c-2.43-2.43-2.3-3.17-2.31-6.5l-.05-2.41.362-2.09 3-2 .938 1.94c.897 2 .897 2 2.06 3.06.433-.495.866-.99 1.31-1.5 1.69-1.5 1.69-1.5 4.69-1.5v3c2.37.418 2.37.418 5 0 1.86-2.41 1.86-2.41 3-5 2.03 1.66 2.92 2.55 3.4 5.17-.104 11.4-2.84 22.3-5.96 33.2-.21.744-.419 1.49-.635 2.25-.538 1.81-1.16 3.59-1.8 5.37-2.52 1.26-4.24 1.12-7.06 1.12l-3.25.005-3.58-.011h-3.75c-3.4 0-6.81-.005-10.2-.012-3.55-.007-7.11-.007-10.7-.008-6.73-.004-13.5-.012-20.2-.022-7.66-.01-15.3-.016-23-.021-15.8-.01-31.5-.029-47.3-.05l-1 3h-2v-2c-10.1.042-17.6 4.25-25 11-.557.742-1.11 1.48-1.69 2.25-.433.577-.866 1.15-1.31 1.75h-2c-.227.556-.454 1.11-.688 1.69-1.67 2.94-3.87 4.99-6.31 7.31-8.81-3.72-13.2-14.5-17.3-22.6-4.6-8.7-9.43-17.1-14.8-25.4-1.93-3.05-1.93-3.05-3.07-5.4-1.16-2.24-2.59-2.62-4.85-3.64-1.75-1.63-1.75-1.63-3-3h3v-9c3.75-1.82 6.01-2.37 10-1 1.62 1.38 1.62 1.38 3 3 .536.453 1.07.907 1.62 1.38 1.78 2.11 2.01 3.93 2.38 6.62v-2l2.69.561c4.3.568 7.25-.208 11.3-1.56.043 2 .041 4 0 6l-1 1c-.1 1.91-.13 3.83-.125 5.75l-.008 3.17c.122 2.83.373 5.35 1.13 8.08 2.56 1.79 3.83 2 7 2 3.51 1.05 6.77 2.26 10 4l-3 2-2-1v3c8.62-.162 8.62-.162 16-3l2-1v-2h3v-2c2.76-.597 5.16-1 8-1l2.12-.5c3.97-.69 7.86-.579 11.9-.5v2l2.38-.562c2.62-.438 2.62-.438 4.62.562 2.04.071 4.08.084 6.12.063l3.32-.028 2.55-.035 1-2 1-1 .688-2.5c1.31-2.5 1.31-2.5 4.25-3.44 3.06-.062 3.06-.062 6.06 1.94l3-3 1 5 1.88-.562c2.12-.438 2.12-.438 4.12.562v-8l-3-1h3v-4l-2-1 2-7h-8l-1-2 2-2 2 1 1-3v3h2c.144-.619.29-1.24.438-1.88.562-2.12.562-2.12 1.56-4.12-.557.206-1.11.413-1.69.625-3.04.493-4.63-.175-7.31-1.62-1-3-1-3 0-6v-4h-3v-5l2 2c.31-.619.62-1.24.938-1.88l2.06-4.12-2-2 2-4-2-1 1-1-5-2 3-1-1-4-4-1 2-3h2v2h3c-.165-.722-.33-1.44-.5-2.19-.476-2.68-.577-5.1-.5-7.81h2l-1-5c-4.43-1.81-4.43-1.81-9-1l-2-2 3-1c-.959-2.33-.959-2.33-4-4v-2l-3-1 1-4 1 1v-2h-3v-2h-2v2h-2l-1-5h-2l-2-3-5 1v-2l-7 1-1-4h-11v5h2c.125 7.75.125 7.75-1 10-2.32.407-4.66.744-7 1l-2-4c1.48-.99 1.48-.99 3-2l-4-3-1 3c-2.29-3.44-2.18-4.99-2-9l5-1h-2c-1.34-.315-2.67-.646-4-1v4h-3v2h-2v2l-5 2-.375-2.38c-.416-2.77-.416-2.77-2.62-4.62l4-1v-2c-.578.186-1.15.371-1.75.562-2.46.478-3.89.195-6.25-.562v3c-1 3-1 3-2.67 3.91-.686.235-1.37.47-2.08.711-.719.25-1.44.498-2.18.754-2.07.621-2.07.621-4.95 1.18-2.33.277-2.33.277-4.12 2.44-1.99.398-3.99.738-6 1v7l-2-4h-2c-.7 3.15-1 5.73-1 9l3 1 3 2 2.44-2c2.56-2 2.56-2 3.56-2l1 9-3 1 2 6-1 1c1.22 2.69 1.22 2.69 3 5 1.02-4.1 1.02-4.1 0-8h3v-2l5-1c-.547 3.37-1.05 5.08-3 8 0 3.08 0 3.08 1 6 1.95 1.44 1.95 1.44 4 2v-2h2l1-7h4l-1 3-1-1 1 6 3 1v2l-2.44.375-2.56.625-1 2h-9v-6l-1 2h-3l1 7-3 1c-3.09-2.53-3.91-5.22-5-9-.34 1.21-.34 1.21-.688 2.44-1.31 2.56-1.31 2.56-3.81 3.44-2.5.125-2.5.125-4.5-.875l1-5 4-1-1-7-1.88-.438c-2.12-.562-2.12-.562-4.12-1.56v-2l-9 1c-1.12-3.35-.672-4.64 0-8l-1-3-7 1 1-3h-2v-6l-6 1 1-3h4v-2l-3-1h3v-4c-3.47.99-3.47.99-7 2v-6h-6c-.247-.928-.495-1.86-.75-2.81-.933-3.27-.933-3.27-3.38-4.62-.619-.516-1.24-1.03-1.88-1.56-.25-3.69-.25-3.69 0-7h-4l-1-5c-1.56-.34-3.12-.67-4.69-1l-2.64-.562c-3.48-.57-6.46-1.04-9.68.562a97.152 97.152 0 0 1-5.62-.438l-3.04-.309-2.34-.254v-2h-3v-2l-3-1 1-3-6 1c-1-4.75-1-4.75-1-7l-3 .625c-4.38.654-7.79-.37-12-1.62v-3l2-1v-2h-5v-3l-4 1-.25-2.38c-.469-2.72-.469-2.72-2.56-3.81-.722-.268-1.44-.536-2.19-.812-1.33-.667-2.67-1.33-4-2l2-3-2-4h-5l-1 2v-3h-2v-3h-5l3 1v2l-2.12.184-2.76.254-2.74.246c-2.39.186-2.39.186-4.38 1.32-1.12-3.75-1.12-3.75 0-6h-6v3l-6 2c-1-1-1-1-1.06-3.56l.063-2.44 2-1-1-2h2c-1.71-3.31-1.71-3.31-5.12-3.69l-2.88-.312-1-6c-1.49.495-1.49.495-3 1l-2-1-1.88 2.44c-2.12 2.56-2.12 2.56-4.12 3.56a74.293 74.293 0 0 1-5-1l2-2-6-1v-4l-1.76.29c-5.09.722-8.37.616-13.2-1.29-2.33-.376-4.66-.72-7-1v-2c-2.4-.68-2.4-.68-5-1l-2 2c-2.16-.024-2.16-.024-4.62-.376-.817-.11-1.63-.222-2.48-.336l-1.9-.289c-.291.645-.583 1.29-.883 1.95-1.12 2.05-1.12 2.05-2.99 2.8-2.12.25-2.12.25-6.12.25l-1.5 2-1.5 2h-4v-2h-6l-1-2v5c-.31-.639-.62-1.28-.938-1.94-.897-2-.897-2-2.06-3.06v9l-1-2c-1.32-.684-2.66-1.35-4-2l-2-2c-2.57-.648-2.57-.648-5-1l-1-4h-5v-2l-12-1c.495-1.49.495-1.49 1-3l2-1 .312-1.88c.688-2.12.688-2.12 2.69-3.69 3.15-1.51 6.28-2.57 9.61-3.62 2.36-.807 4.56-1.76 6.82-2.82 4.75-2.15 9.55-3.6 14.6-5l4.29-1.26c1.57-.455 3.14-.909 4.71-1.36l2.23-.662c11.2-3.17 22.6-2.93 34.1-2.95z"/><path fill="#CF4332" d="M803 900c7.71 3.32 11 13.6 14.8 20.8 2.44 4.59 4.89 9.17 7.37 13.7l1.2 2.25c2.43 4.42 5.09 8.13 8.54 11.8 1.14 1.43 1.14 1.43 1.14 3.43.859.427.859.427 1.73.863 1.46.731 2.91 1.48 4.34 2.24 4.48 2.23 7.95 3.55 12.9 2.57 6.1-2.08 10.6-6.02 15-10.7 1.52-1.52 3.04-3.05 4.56-4.56l2.25-2.25 2.18-2.18 2.09-2.21c1.91-1.79 1.91-1.79 4.91-2.79 1.67-1.5 1.67-1.5 3-3v2h122c-.93 4.65-1.8 6.67-4.31 10.5-.594.918-1.19 1.84-1.8 2.78-2.87 4.14-6.05 7.95-9.39 11.7-1.94 2.2-3.81 4.39-5.62 6.69-2.13 2.63-4.45 4.95-6.88 7.31-.887.928-1.77 1.86-2.69 2.81-2.31 2.19-2.31 2.19-4.31 2.19l-.625 1.62c-1.91 3.29-4.42 5.97-7.38 8.38h-2l-.812 1.94c-1.19 2.06-1.19 2.06-4.19 3.06-.289.577-.578 1.15-.875 1.75-1.84 3.69-4.59 6.51-8.31 8.31-2.39 1.24-2.65 2.54-3.81 4.94-4.33 4.78-4.33 4.78-8 6l-1 3h-2l-2 4h-2l-1 3c-2.44 2.69-2.44 2.69-5 5h-2l-2 4h-2l-1 3c-1.49 1.26-2.98 2.52-4.51 3.73-1.81 1.55-3.08 3.36-4.49 5.27h-2l-2 4-2-1 6-9h-8l-1 2h-4l-1-7 3.38-.312c1.2-.227 2.39-.454 3.62-.688l2-3h2v-8c-.95-2.15-.95-2.15-2-4h2l1-6c-.351.474-.701.949-1.06 1.44-2.78 2.24-5.45 2.23-8.94 2.56l-1-4-1 2-1.88-.562c-2.17-.674-2.17-.674-4.12.562l-2-1v4l-5 5c-.872 2.68-.872 2.68-1 5-2.31.188-2.31.188-5 0-1.56-1.38-1.56-1.38-3-3-2.1-1.18-2.1-1.18-4-2v-5l4 1v2h2l-1-2.62c-.987-3.33-1.16-5.93-1-9.38-3.73 1.12-3.73 1.12-6 4l-1-1c-3.07.776-3.07.776-5 3-2.54-7.63-2.54-7.63-.625-11.8.536-1.05 1.07-2.1 1.62-3.19v-3c-1.49.495-1.49.495-3 1v2h-4v3h-11l-2-3-1.25 1.5c-1.75 1.5-1.75 1.5-5.75 1.5v-3l-2.62-.375c-3.27-.606-6.25-1.51-9.38-2.62l.625-2.88.375-3.12-2-2h5l1-7-1 2c-3.06.625-3.06.625-6 1l-1 5c1.49.99 1.49.99 3 2 .293 2.16.293 2.16.188 4.62l-.082 2.48-.105 1.9 5 1c-.812 2.44-.812 2.44-2 5-1.49.495-1.49.495-3 1l-1 2h-3c-2-4.75-2-4.75-2-7h-6l-1 2-1-2-1 5h-2l-1 2c-2-2-2-2-2.12-4.62l.125-2.38h-2l1 3c-2.91 1.26-4.8 2-8 2l-.188 3.31c-.812 3.69-.812 3.69-3.31 5.38-.825.433-1.65.866-2.5 1.31-.752 1.93-.752 1.93-1 4-.637 1.35-1.3 2.69-2 4h-3l-1 7h-3v4l-8 2 2 9c-3.49.1-6.59-.222-10-1v9h-18c-.133-4.8-.133-4.8 1.06-6.62 1.94-1.38 1.94-1.38 5.25-2.31 5.2-2.17 6.73-7.18 8.88-12.1 2.86-6.98 5.03-14.2 7.31-21.4.576-1.79 1.15-3.59 1.73-5.38 3.2-9.99 6.32-20 9.04-30.1.885-3.28 1.83-6.26 3.2-9.39 1.62-3.86 2.69-7.66 3.75-11.7 1.36-5.07 2.93-10.1 4.48-15.1.342-1.11.683-2.21 1.04-3.35 3.67-11.9 7.46-23.7 11.3-35.5z"/><path fill="#C23D2B" d="M689 826c2.57 2.22 3.41 3.67 3.89 7.02l.393 2.54.408 2.81c2 12.6 4.72 25 7.49 37.5 1.72 7.75 3.29 15.5 4.38 23.3.638 4.12 1.62 8.15 2.59 12.2.974 4.17 1.85 8.36 2.72 12.6 1.49 7.17 3.09 14.3 4.75 21.4 1.58 6.81 2.89 13.6 3.85 20.5 1.08 6.46 2.88 12.8 4.52 19.1 2.24 8.69 3.57 17 4 26-.455-.483-.91-.967-1.38-1.46-1.9-1.8-3.1-2-5.62-2.54-1.35-.637-2.69-1.3-4-2h3l-3-1-.375 1.94-.625 2.06-2 1-2 3-2-2-2 1-2-1v-7l-2 2c-3.12.125-3.12.125-6 0v-5l3-1v-3l-2.44-.375-2.56-.625-1-2h2v-2l3 1c1.29-1.23 1.29-1.23 3-4l-4-2 1-3h-2l.125-3.75c.012-3.27-.268-5.46-2.12-8.25h-4l-2-1v-2l-3-1v-2l-3 1v2c-1.81 1.69-1.81 1.69-4 3l-3-1-1-8v1l-3 1-1-2-1 3h3l1 7c-2.37 1.06-2.37 1.06-5 2l-2-1 1 4 11 1-1 2c-1.66.359-3.33.689-5 1-2.23.991-2.23.991-4 2h4v2h-2v3c-6.63 2.88-6.63 2.88-10 4l-2-1v-3l-2 1v-2h-2v5l-1-3h-10v-2c-4.33-1.58-8.43-2.45-13-3l-1 3c-2.06.688-2.06.688-4 1l-1-3-3-1-1-2-6 1v-2l-3-1c-.043-1.67-.04-3.33 0-5l1-1c-.99-.928-.99-.928-2-1.88-2-2.12-2-2.12-2-4.12h3l1-3h-2v2h-2l.125-2.25c-.136-2.99-.412-4.32-2.12-6.75-2.64-.92-2.64-.92-5.62-1.25l-3.04-.453-2.34-.297c-.125-5.75-.125-5.75 1-8h-5v2h-6l-1-6c-.918.156-1.84.312-2.78.473-6.68 1.06-12.6 1.96-19.2.527l-1-1c-.454.495-.908.99-1.38 1.5-1.62 1.5-1.62 1.5-3.62 1.5-.495 1.49-.495 1.49-1 3l-5-1v2l-3 2v3l-6 1v4l3-1 3 2v4c2.62 1.91 4.93 2.98 8 4l.875 2.38c.903 2.84.903 2.84 3.69 4.06 2.44 1.56 2.44 1.56 3.25 4.75l.188 2.81 7-1v2h-3c-1.15 1.93-1.15 1.93-1 4l2.38.812c2.62 1.19 2.62 1.19 4.62 4.19l-1 3c-.04 2.33-.044 4.67 0 7h5v2c1.45.959 1.45.959 2.94 1.94 3.06 2.06 3.06 2.06 4.06 5.06h3c1.49.99 1.49.99 3 2h2v4l2 1h-2v2l2.75.438c3.25.562 3.25.562 5.44 1.19 2.04.579 2.04.579 4.81-.625-1 3-1 3-3 5v2l4 2-1 8-6 1-1-6-2.38-.438c-2.62-.562-2.62-.562-4.62-1.56-.727-1.98-1.4-3.98-2-6l-6-1-.375-1.94-.625-2.06-2-1-2-3c-2.84-2.47-5.56-4.47-9-6l-1 5c-3 0-3 0-4.59-1.27-.562-.584-1.12-1.17-1.7-1.77-.626-.641-1.25-1.28-1.9-1.94-.988-1.03-.988-1.03-2-2.08l-4.08-4.17-1.97-2.01a95.171 95.171 0 0 0-6.14-5.57c-3.88-3.27-7.12-7.03-10.5-10.8-2.34-2.55-4.83-4.69-7.5-6.88-2.45-2.17-4.48-4.66-6.59-7.15-2.02-2.26-4.15-4.38-6.33-6.5-9.75-9.47-17.9-20-24.7-31.8v-1l2.43-.076c7.84-.245 7.84-.245 15.7-.505l4.3-.146 2.18-.074c4.63-.153 9.27-.262 13.9-.348l3.49-.084c2.15-.052 4.3-.09 6.46-.111 8.99-.248 16.9-2.36 23.6-8.66 1.08-.99 1.08-.99 2.19-2 1.75-1.93 2.69-3.67 3.81-6l2-1c.973-1.88 1.94-3.76 2.86-5.66 1.18-2.42 2.38-4.83 3.64-7.21.382-.74.763-1.48 1.16-2.24 1.55-2.17 2.9-2.9 5.34-3.88v2h2c.536 1.07 1.07 2.14 1.62 3.25.371.741.743 1.48 1.12 2.25.837 1.68 1.67 3.36 2.5 5.04a731.3 731.3 0 0 0 9.5 18.5c.42.798.84 1.6 1.27 2.42 2.27 4.3 4.55 8.6 6.84 12.9l1.4 2.63c.892 1.68 1.79 3.35 2.69 5.03.4.753.8 1.51 1.21 2.28.533.997.533.997 1.08 2.01.759 1.67.759 1.67.759 3.67.557.268 1.11.536 1.69.812 2.31 1.19 2.31 1.19 4.44 2.75 5.33 2.66 12.2 3.29 17.9 1.44l2-.625c8.89-6.11 11.4-19.1 13.6-28.9 1.47-6.64 3.21-13 5.44-19.4 4.86-14.7 9.19-29.5 13.3-44.5.231-.841.463-1.68.701-2.55.286-1.04.286-1.04.578-2.11.919-3.29 1.98-6.46 3.23-9.64 2.28-6.12 3.87-12.4 5.44-18.7l.602-2.39.526-2.14c.662-2.15 1.56-4.04 2.62-6.02z"/><path fill="#CD3C2E" d="M830 979c.495 1.49.495 1.49 1 3h-2v4l-2 2c-.648 2.57-.648 2.57-1 5l2.59.77c1.1.344 2.21.688 3.35 1.04 1.1.336 2.2.673 3.34 1.02.898.385 1.8.771 2.72 1.17.495 1.49.495 1.49 1 3l4-1 1-4 1.18 1.43c2.3 1.98 4.04 2.26 7.01 2.76l2.73.48 2.08.332v-3l3-2 2-2c2 1 2 1 2.81 2.62.188 2.38.188 2.38-1.38 5.88-1.8 3.3-1.8 3.3-.625 5.94.588.773.588.773 1.19 1.56 2.97-.342 2.97-.342 6-1l1-2h4l.438 3.19c.438 2.97.941 5.88 1.56 8.81h-2v-2l-4-1c.03 2.42.03 2.42 1 5 2.97 1.86 2.97 1.86 6 3v2c2-.579 2-.579 4-2 .693-1.99 1.36-3.99 2-6 2.06-2.25 2.06-2.25 4-4l1-2c2.39-.612 4.54-1 7-1l2-1c2 2 2 2 3 4h3l2-3h3c-.875 5.88-.875 5.88-2 7l2 3 1 3h-2l1 3c-3.74 5.67-3.74 5.67-8.31 6.88l-2.69.125v6l1-2c2.18-.449 2.18-.449 4.88-.688l2.68-.262c2.45-.05 2.45-.05 5.45.949-.398.592-.797 1.18-1.21 1.79-3.39 5.06-3.39 5.06-6.54 10.3-.413.639-.825 1.28-1.25 1.94h-2l-.688 1.69c-1.69 2.97-3.84 4.96-6.31 7.31-.846.887-1.69 1.77-2.56 2.69-2.44 2.31-2.44 2.31-4.62 3.38-2.37 1.23-2.73 2.55-3.81 4.94-1.5 1.75-1.5 1.75-3 3h-2l-.812 1.94c-1.19 2.06-1.19 2.06-4.19 3.06-1.21 2-1.21 2-2 4h-2l-.688 1.75c-1.65 2.82-3.75 4.25-6.31 6.25-.557.743-1.11 1.48-1.69 2.25-.433.578-.866 1.15-1.31 1.75h-2l-2 4h-2l-1 3c-1.63 1.61-1.63 1.61-3.56 3.19-.641.53-1.28 1.06-1.94 1.61l-1.5 1.21c0-4.1 1.63-5.15 4.38-8.12 1.22-1.33 1.22-1.33 2.46-2.7 2.16-2.18 2.16-2.18 4.16-3.18v-3l3-1 2.5-3.06 2.5-2.94h3v-7l-4-1v2l-2 2-2 3h-3v2h-3l-1 2h-2l-.312-3.31c-.734-4.13-.734-4.13-3.69-6.69l-3-1v-7h2l-1-3h-2l-1 2h-2c-2.34 3.27-3.41 6.05-4 10l-.562 2.75c-.469 2.03-.469 2.03-.438 3.25-9.38 0-9.38 0-14-2v-6c-2.02.602-4.02 1.27-6 2l-1 2v-2l-4 1-1 7-2.56-.625c-4.6-.502-8.31.563-12.4 2.62-.652 2.02-.652 2.02-1 4h-2l1-5c-.722.474-1.44.949-2.19 1.44-3.7 2.05-6.62 2.56-10.8 2.56l-2.38.359-2.62.391-2.62.422c-2.38-.172-2.38-.172-4.19-2.03-1.19-2.14-1.19-2.14-1.19-4.14l2-1-3-2 3-1 1-2h-6l-2 4-1-2-1 2c-2.56.625-2.56.625-5 1v2.81c-1 3.19-1 3.19-2.67 4.25-3.8 1.48-7.22 2.32-11.3 1.93l1-5-4-1 4-2-1-3h-4v-3c-.598-.268-1.2-.536-1.81-.812-2.16-1.17-3.55-2.38-5.19-4.19l-1 2v-4l-2-1h2v-2l-2-1v-2c2.76.523 5.33 1.11 8 2 .124-.763.247-1.53.375-2.31.625-2.69.625-2.69 2.62-5.69l-10-2-1-4c-3-1.3-3-1.3-6-2 2.05-2.25 3.01-3 6-4-.23-5.39-.23-5.39-2.56-10l-1.44-1 1-1-4-3h3v-2l-4-2c.375-2.94.375-2.94 1-6l2-1c1.33.667 2.67 1.33 4 2h4v-3l-2 1c-2.16-.559-2.16-.559-4.62-1.44l-2.48-.871c-.626-.228-1.25-.456-1.9-.691l1-5 3.25.25c4.37-.291 4.96-1.11 7.75-4.25l.396 1.91c.606 2.89 1.23 5.77 1.85 8.65l.621 3c1.29 5.88 2.93 10.3 6.13 15.4v2l9 3v2l2 1h-3v2h5v1h-5v2l2.96-.219c1.27-.093 2.54-.186 3.86-.281l3.83-.281c2.12-.138 4.24-.219 6.36-.219v-2c.32-2 .653-4 1-6 3.81-1.47 6.29-.433 10 1l-1-7-3-1 1-2c2.07-.414 2.07-.414 4.56-.625l2.5-.227 1.93-.148-.625-1.88-.375-2.12 2-2 1 1 2-6h3c.289-.908.577-1.82.875-2.75 1.76-5.08 1.76-5.08 3.12-7.25l3-1 1-7c3.96-1.49 3.96-1.49 8-3v-2h2l2 6 3-1-.625-1.88-.375-2.12 2-2 2 1c2 .04 4 .044 6 0 .99 3.47.99 3.47 2 7h3c.495-1.49.495-1.49 1-3l3-1v-3h-3c-1.2-2.41-1.1-3.95-1.06-6.62l.027-2.48.036-1.9-4-2h2v-7l2 1c4.27-2 4.27-2 6-2z"/><path fill="#C5392B" d="M481 794c1 3 1 3 .5 6.44-.434 3.1-.531 4.7.5 7.56l-1-2h-2v4c3.37-2.27 3.37-2.27 5-6l3 1 2-2-1-2 3-1 2 1v2l3 1v4h2v-2h2v-6c4.22-.196 7.17.198 11 2v3h-2v2l6-1v-2l5 1c.495 1.49.495 1.49 1 3 .588-1.24.588-1.24 1.19-2.5.598-.825 1.2-1.65 1.81-2.5 2.69-.312 2.69-.312 5 0v2l2.94-.063c3.06.063 3.06.063 4.06 1.06l2-4 3 1c0 3 0 3-.5 5.44-.628 2.78-.628 2.78-.5 6.56l5-1c1.41 2.81.936 4.95.688 8.06l-.238 3.29-.449 2.65-2 1 1 2h2c.474-.825.949-1.65 1.44-2.5.516-.825 1.03-1.65 1.56-2.5h3v-6h3c1.95 2.92 2.45 4.63 3 8l3-1v4h-6l-1 4h-4l-1 4-4 1 2 2-1 1 2 1 1-3c1.85 5.14 2.21 7.96 0 13l2-.562c3.96-.577 7.06-.16 11 .562l1 2c1.49.495 1.49.495 3 1l-1 2 2 1h-2l2 2c2.11-.319 2.11-.319 4-1v-2l6-2-2 6-2-1v3c2.88-.882 2.88-.882 5-2v2l3-1c2.19.938 2.19.938 4 2l-1 2 2 1-2 3 6-1-1 4-1.68.383c-2.54.676-4.93 1.54-7.38 2.49-1.29.491-1.29.491-2.6.992-2.32 1.12-3.57 2.3-5.34 4.13h-2l-.805 1.62c-12.6 24.9-12.6 24.9-19.2 29.4-2.91.23-5.73.35-8.65.38l-2.57.051c-2.72.053-5.43.093-8.15.132-2.71.044-5.42.09-8.13.143-1.69.032-3.37.059-5.06.08-3.96.07-7.55.384-11.4 1.21-3.88.15-7.75 0-11.6-.125l-3.18-.031c-7.63-.254-7.63-.254-10.3-3.02l-.914-2.82-1.07-2.97-.93-3.03c-.46-1.3-.46-1.3-.93-2.62-7.02-20.9-11.1-47.5-7.07-69.4.16-1.64.307-3.29.438-4.94.408-4.23 1.34-7.98 2.56-12.1.769-3.53 1.5-7.06 2.22-10.6.748-3.26 1.5-6.32 2.78-9.4l3-1zm-11 44 1 3z"/><path fill="#CF4332" d="m748 800 4 2c-.371 1.2-.742 2.39-1.12 3.62-1.03 4.03-.606 6.53 1.12 10.4h2v-2h2c-.256-2.34-.593-4.68-1-7l-2-1 5-1 .367 1.86.508 2.45c.162.801.325 1.6.492 2.43.578 2.51.578 2.51 2.63 5.26-.495 1.49-.495 1.49-1 3h-2l4 5c1.16-1.05 1.16-1.05 2-3h3v-4l4-1c.495 1.49.495 1.49 1 3l1.86-.254 2.45-.309 2.43-.316c2.26-.121 2.26-.121 5.26.879v4c-1.49.495-1.49.495-3 1v2l-2 2c.495.351.99.701 1.5 1.06 2.23 2.88 1.7 5.41 1.5 8.94l-3 1 .492 2.06c.584 3.38.64 6.57.633 10l.008 3.66c-.108 2.66-.354 4.76-1.13 7.28l-.562 2.25c-.144.577-.29 1.15-.438 1.75 3 1.33 3 1.33 6 0 0 12 0 12-1 15l-2-1v6l3 1c-.165.763-.33 1.53-.5 2.31-.418 3.09-.39 5.38-.188 8.44.062 7.73-2.87 14.5-5.43 21.7-1.56 4.52-2.9 9.11-4.26 13.7-3.85 12.8-8.09 25.5-12.4 38.2-1.92 5.66-3.59 11.4-5.21 17.1-1.94 6.87-3.93 13.7-6 20.6h-3c-1.75-3.09-2.4-5.74-2.88-9.25-.744-4.82-1.77-9.47-3-14.2-2.33-8.94-3.99-18-5.66-27.1-.637-3.4-1.32-6.79-2-10.2-.413-2.05-.815-4.11-1.21-6.17l-.691-3.54c-.226-1.16-.451-2.33-.684-3.52-.65-3.17-1.44-6.3-2.25-9.43-2.09-8.25-3.61-16.6-5.19-25a4009 4009 0 0 0-1.82-9.55l-.404-2.16c-.634-3.31-1.38-6.53-2.31-9.78-.961-3.37-1.11-6.14-1.04-9.64l.055-3.18.07-2.38h1l1 5 3-4 1 2 1-6-3-1c-1.59-3.19-1.1-6.63-1.06-10.1l.014-2.29c.011-1.86.03-3.73.048-5.59h2v-2c1.5-1.62 1.5-1.62 3-3-.289-.577-.577-1.15-.875-1.75l-1.12-2.25c-.33-.598-.66-1.2-1-1.81-2.47-5.4-3.24-10.3-3-16.2l2 2v-3l-2-2c.375-3.12.375-3.12 1-6 4.88 1.75 4.88 1.75 6 4h2l1 3 1-2h4v-4l5-1 1 3 3-2 3-1v-7z"/><path fill="#D54130" d="M921 956h9l1 2h13l1-2v2h5l1-2c3.15-.262 4.62-.248 7.31 1.5.557.495 1.11.99 1.69 1.5v-2l6 1 1 4h2l1 7h3l-1 4 5 1c-1.42 5.19-4.92 8.66-9 12h-2l-.812 1.94c-1.19 2.06-1.19 2.06-4.19 3.06-.289.577-.577 1.15-.875 1.75-1.84 3.69-4.59 6.51-8.31 8.31-2.39 1.24-2.65 2.54-3.81 4.94-4.33 4.78-4.33 4.78-8 6l-1 3h-2l-2 4h-2l-1 3c-2.44 2.69-2.44 2.69-5 5h-2l-2 4h-2c-.495 1.48-.495 1.48-1 3-1.49 1.26-2.98 2.52-4.51 3.73-1.81 1.55-3.08 3.36-4.49 5.27h-2l-2 4-2-1 6-9h-8l-1 2h-4l-1-7 3.38-.312c1.2-.227 2.39-.454 3.62-.688.99-1.48.99-1.48 2-3h2v-8c-.95-2.15-.95-2.15-2-4h2l1-6c-.351.474-.701.949-1.06 1.44-2.78 2.24-5.45 2.23-8.94 2.56l-1-4-1 2-1.88-.562c-2.17-.674-2.17-.674-4.12.562l-2-1v4l-5 5c-.872 2.68-.872 2.68-1 5-2.31.188-2.31.188-5 0-1.56-1.38-1.56-1.38-3-3-2.1-1.18-2.1-1.18-4-2v-5l4 1v2h2c-.495-1.3-.495-1.3-1-2.62-.987-3.33-1.16-5.93-1-9.38-3.73 1.12-3.73 1.12-6 4l-1-1c-3.07.776-3.07.776-5 3-2.54-7.63-2.54-7.63-.625-11.8.536-1.05 1.07-2.1 1.62-3.19v-3l-3 1v2h-4v3h-11l-2-3-1.25 1.5c-1.75 1.5-1.75 1.5-5.75 1.5v-3l-6-1c-.625-1.81-.625-1.81-1-4l2-3c.242-2.75.242-2.75.125-5.69l-.055-3.01-.07-2.3h2l-2-4h-2c-.043-1.67-.04-3.33 0-5 1-1 1-1 4.25-1.12 3.13.104 5.71.458 8.75 1.12l2.02.148c2.17.164 2.17.164 5.98.852 1.5 2.06 1.5 2.06 2 4l2-1v3h2l1-2 3 1 3-1v-3c5.54-1.96 9.21-2.02 15-1l1-3h2v-2c4.04-.634 7.91-1.12 12-1l1-4 9 1 1-2h9v-1h11l-4-2z"/><path fill="#C33D2B" d="m630 1047 6.15.098 1 5c3.66 1.05 7.31 2.09 11 3l-.289 1.9c-.111.817-.222 1.63-.336 2.48l-.352 2.46-.023 2.16 2 2-2 1c.458 3.47.89 6.67 2 10 2.02.733 2.02.733 4 1l-2 1v2l2.88-.125c3.12.125 3.12.125 5.12 2.12h-2c.03 2.42.03 2.42 1 5 2.97 1.86 2.97 1.86 6 3v2l5 1-1 7 2.25-1.06c2.88-.983 3.96-.97 6.75.062 1.96 6.67 1.96 6.67 2.31 9.75.974 3.19 2.86 3.66 5.69 5.25 1.31 2.19 1.31 2.19 2 4h-2l1 4 2-2c1.66-.382 3.32-.714 5-1 3.4-1.13 4.69-2.3 7-5 .787-2.14.787-2.14 1-4-1.49-.495-1.49-.495-3-1l-1-6c1.49.99 1.49.99 3 2v3c.95 1.79.95 1.79 3 3 2.68.555 5.26.776 8 1-1.96 1.51-3.78 2.89-6 4 1.49.495 1.49.495 3 1 .949 1.85.949 1.85 1.69 4.06.25.733.503 1.47.762 2.22l.55 1.71h3l.876 3.75c.738 2.97 1.57 5.58 3.12 8.25h-2c-.334 3.37-.334 3.37 0 7 1.86 1.98 1.86 1.98 4 3 .495-1.48.495-1.48 1-3 2 3 2 3 2 7 3.5-2.33 4.68-4.03 6-8l1.88 2.38c2.02 2.59 2.02 2.59 4.12 4.62h-3v2c1.46-.14 2.92-.288 4.38-.438l2.46-.246c2.21-.207 2.21-.207 4.16-1.32l2 6 7 1 3-4 3 1-1 2h4l-.562 2.44-.438 2.56 1 1 1-4 3 1-1 4h5l-.562-2.44-.438-2.56 1-1h7l1-1c1.33-.362 2.66-.697 4-1l1-5h2v2h2l-1-5h2v-6l6-1 1-5 5 1v2h7v-3h3l2-8c2 2 2 2 3 4 2.03-.64 2.03-.64 4-2 .812-2.56.812-2.56 1-5l4 1 1-4 4 1c-1.18 1.08-1.18 1.08-2.38 2.19-2.69 2.55-2.69 2.55-3.62 5.31-1.59 3.96-4.35 6.7-8.19 8.56-2.39 1.24-2.65 2.54-3.81 4.94-1.62 1.71-3.3 3.37-5 5l-1.59 1.65c-1.43 1.49-2.92 2.92-4.41 4.35h-2l-.79 1.82c-1.29 2.33-2.51 3.48-4.59 5.12-2.98 2.43-5.23 5.05-7.62 8.06h-2l-.811 1.94c-1.19 2.06-1.19 2.06-4.19 3.06l-2 4-3 1c-1.21 2-1.21 2-2 4h-2l-.75 1.88c-1.49 2.53-2.69 2.84-5.25 4.12-.31.62-.62 1.24-.938 1.88-1.5 2.99-3.25 4.34-6.06 6.12-3.93.563-5.5.353-8.77-1.97-1.4-1.36-1.4-1.36-2.82-2.76-.513-.493-1.03-.986-1.55-1.49-1.63-1.58-3.24-3.18-4.85-4.78-1.04-1.03-2.09-2.05-3.14-3.08-3.12-3.08-6.21-6.18-9.3-9.3-1.06-1.06-2.12-2.13-3.18-3.19-1.94-1.94-3.87-3.89-5.8-5.84-2.52-2.54-5.05-5.07-7.58-7.6-.742-.744-1.48-1.49-2.25-2.25-3.08-3.08-6.17-6.14-9.26-9.21-3.51-3.49-7.02-6.98-10.5-10.5-1.86-1.85-3.71-3.69-5.57-5.53-2.68-2.66-5.36-5.32-8.03-7.99l-2.54-2.51-2.32-2.32a777.53 777.53 0 0 1-2.05-2.04c-1.45-1.69-1.45-1.69-1.45-3.69l-1.79-.836c-4.9-2.58-8.76-6.54-12.3-10.7-4.43-5.11-9.2-9.85-14-14.6-.954-.952-1.91-1.91-2.86-2.86-2.49-2.48-4.97-4.96-7.46-7.44-2.55-2.54-5.1-5.08-7.64-7.62-4.98-4.97-9.96-9.93-14.9-14.9l1-2c2.95 1.37 5.52 2.88 8 5v2h8c-.495-.392-.99-.784-1.5-1.19-1.96-2.37-1.62-3.82-1.5-6.81l2.15-.402 2.79-.535c.917-.174 1.83-.348 2.78-.527 2.3-.538 2.88-1.51 5.13-1.63z"/><path fill="#CE4332" d="M689 826c2.57 2.22 3.41 3.67 3.89 7.02l.393 2.54c.135.928.269 1.86.408 2.81 2 12.6 4.72 25 7.49 37.5 1.72 7.75 3.29 15.5 4.38 23.3.638 4.12 1.62 8.15 2.59 12.2.974 4.17 1.85 8.36 2.72 12.6 1.49 7.17 3.09 14.3 4.75 21.4 1.57 6.8 2.91 13.5 3.83 20.5a78.46 78.46 0 0 0 1.66 7.41l.597 2.21a176.4 176.4 0 0 0 1.24 4.27c.545 1.95.545 1.95 1.06 5.29-1.39 1.96-1.39 1.96-3 3-.99-2.48-.99-2.48-2-5h2c-1.04-2.95-2.12-5.16-4-7.69-2.25-3.73-2.86-6.94-3.25-11.2l-.234-2.09c-.186-1.68-.353-3.36-.516-5.04l-3.39-.785c-1.19-.401-2.38-.802-3.61-1.21-1.69-3.44-1.69-3.44-3-7a96.915 96.915 0 0 0-4-3c-2.22-3.99-2.18-7.5-2-12l-3 2-3 1c-.733 2.02-.733 2.02-1 4h-3v-4c-1.46-1.63-1.46-1.63-3-3v-2l-4 4-2-1v2h-2v2c-2.48.99-2.48.99-5 2v3l4 2v1l-2.25.125c-3.94 1.25-4.8 3.31-6.75 6.88-1.53 3.9-1.53 3.9-2 8l-1.44 1.25c-2.15 2.41-2.21 4.6-2.56 7.75h-2l-1 3-6-2 1-2-3 1 1 2c-6.02 1.47-10.9 2.33-17 1l2-1v-2l-3-1v-2h4l1-3c2.61-1.24 5.26-2.09 8-3 6.69-8.06 9.36-17.5 11.6-27.6 1.47-6.64 3.21-13 5.44-19.4 4.86-14.7 9.19-29.5 13.3-44.5.231-.841.463-1.68.701-2.55.191-.695.382-1.39.578-2.11.919-3.29 1.98-6.46 3.23-9.64 2.28-6.12 3.87-12.4 5.44-18.7l.602-2.39.526-2.14c.662-2.15 1.56-4.04 2.62-6.02z"/><path fill="#D84636" d="m888 930 1 2h122c-.93 4.65-1.8 6.67-4.31 10.5-.594.918-1.19 1.84-1.8 2.78-2.87 4.14-6.05 7.95-9.39 11.7-1.94 2.2-3.81 4.39-5.62 6.69-3.8 4.69-8.21 8.52-12.9 12.3l-1-2c-2.02-.652-2.02-.652-4-1l1-4h-3l-1-7h-2c-.495-1.49-.495-1.49-1-3-3.01-1.23-3.01-1.23-6-2v2c-.866-.371-1.73-.742-2.62-1.12-3.99-1.03-5.59-.273-9.38 1.12-2.12-.438-2.12-.438-4-1l-1.73.461c-2.89.685-5.56.634-8.52.602l-3.27-.027-2.48-.035 2-2h-5l1 2-2.27-.036-2.98-.027-2.95-.035c-2.47.086-4.43.459-6.8 1.1h-6l-1 1c-1.52.072-3.04.084-4.56.062l-2.5-.027-1.93-.035v4h-13v4h-2l-1 2-3.94-.562c-2.15-.336-2.15-.336-4.06-.438l-1 1c-2 .04-4 .042-6 0v3c-3.23 1.78-5.33 2-9 2l-1-2h-3l1-4h3l2-2c-1.18-1.42-1.18-1.42-4.56-1.06l-3.44.062-2-5 2-1v-2c.652-.17 1.3-.34 1.98-.516 8.05-2.23 13.2-5.42 19-11.5l4.56-4.56 4.44-4.44 2.09-2.21c1.91-1.79 1.91-1.79 4.91-2.79l2-3z"/><path fill="#C33D2B" d="M481 794c1 3 1 3 .5 6.44-.434 3.1-.531 4.7.5 7.56l-1-2h-2v4c3.37-2.27 3.37-2.27 5-6l3 1 2-2-1-2 3-1 2 1v2l3 1v4l2 1h-2c.516.887 1.03 1.77 1.56 2.69 1.52 3.51 1.59 4.76.438 8.31h-2v8c-1.49.495-1.49.495-3 1v5h-3c.639.536 1.28 1.07 1.94 1.62 2.45 2.82 2.73 4.71 3.06 8.38h-3c-1.92 6.98-1.92 6.98-1 14v2l4 1c.366 1.41.717 2.83 1.06 4.25.197.789.394 1.58.598 2.39.357 2.48.086 4-.66 6.36v1l2.38.5c2.62 1.5 2.62 1.5 3.37 3.34.334 1.42.635 2.85.898 4.28.287 1.96.287 1.96 1.36 3.88h-2l2 4h2l1 7h-5l1 6 7-1-2-4c2.48-.99 2.48-.99 5-2l1 4 3-1 1 2h-6v2l6-1c-1 2-1 2-2 3 2.82 2.76 2.82 2.76 6 5 3.29-.046 3.29-.046 6-1l-2-3 6 1v-2l1-1c-.247-.908-.495-1.82-.75-2.75-.25-3.25-.25-3.25 1.94-6.06 2.48-1.93 3.76-2.85 6.81-3.19l1 3 2 1v-2h3c-.392-.743-.784-1.49-1.19-2.25l-.812-2.75c.956-1.37 1.96-2.69 3-4 .725-3.65.725-3.65 1-7h3l-.562-3.31c-.438-3.69-.438-3.69.562-6.69l6-1-.625 1.81c-.682 2.47-.682 2.47 1.62 5.19l2 2c.371-.474.743-.949 1.12-1.44 2.56-2.14 4.58-2.36 7.88-2.56 3 2 3 2 4 3 2 .04 4 .043 6 0l1-2 4 2-2.08.77c-.901.344-1.8.688-2.73 1.04l-2.71 1.02c-2.42 1.14-3.66 2.26-5.48 4.17h-2l-.805 1.62c-12.6 24.9-12.6 24.9-19.2 29.4-2.91.23-5.73.349-8.65.379l-2.57.051c-2.72.054-5.43.094-8.15.132-2.71.044-5.42.091-8.13.143-1.69.032-3.37.06-5.06.08-3.96.07-7.55.385-11.4 1.21-3.88.15-7.75 0-11.6-.124-1.05-.01-2.1-.02-3.18-.032-7.63-.254-7.63-.254-10.3-3.02l-.914-2.82-1.07-2.97-.93-3.03c-.46-1.3-.46-1.3-.93-2.62-7.02-20.9-11.1-47.5-7.07-69.4.16-1.64.307-3.29.438-4.94.408-4.23 1.34-7.98 2.56-12.1.769-3.53 1.5-7.06 2.22-10.6.748-3.26 1.5-6.32 2.78-9.4l3-1zm-11 44 1 3z"/><path fill="#CF4332" d="M539 712c2.69.312 2.69.312 5 1-1.37 3.16-1.99 3.99-5 6l-1 3c.577.289 1.15.577 1.75.875 2.08 1.04 4.17 2.08 6.25 3.12l2-2 7 2 1-2c3 2 3 2 3.69 5.12l.312 2.88 6 2c-.495 1.49-.495 1.49-1 3-2.56 1.19-2.56 1.19-5 2l2.88-.188 3.12.188c.99 1.49.99 1.49 2 3l2.81-.5c3.19-.5 3.19-.5 6.19-.5 1.34-.306 2.68-.635 4-1v-2h3c.495-1.49.495-1.49 1-3l1-1c.99-1.49.99-1.49 2-3h-2v-5c3.75-2 3.75-2 6-2v-2c2.02 0 4.04.021 6.06.063 2.87.149 2.87.149 4.94-1.06l2 2-1 1 2 2-4 2 3 2-2 5h-3a88.401 88.401 0 0 0-1 5l1 1 2 2-.656 2.12-.844 2.76-.844 2.74c-.745 2.29-.745 2.29-.656 4.38l-6 1-1-6c-4.73.48-8.64 1.01-13 3-1.49.495-1.49.495-3 1v2h-2l-2 5h-2v2h-6l-1 2c-3.87 1.79-7.14.263-11-1l-1 7-2-1v-2h-3l-2-2h-4v7l-2-1c-5.38-.364-5.38-.364-10 2-.664 2.99-.664 2.99-1 6-2 2-2 2-4.62 2.12l-2.38-.125-1-3h-3l-1 3-9-1-2 3c-3.62.188-3.62.188-7 0l-1-3-2 4h-4l-1 2c-1.75-5.06.017-8.61 1.94-13.3.291-.741.581-1.48.881-2.24.716-1.82 1.45-3.63 2.18-5.44l-2-1c.41-.675.82-1.35 1.24-2.05.539-.892 1.08-1.78 1.63-2.7.534-.882 1.07-1.76 1.62-2.67.922-1.58 1.81-3.18 2.62-4.81 1.03-2.04 2.21-3.22 3.89-4.77 2.15-2.02 3.86-3.77 5.38-6.31 4.06-6.71 9.68-11.7 15.6-16.7 1.23-1.06 2.46-2.12 3.69-3.19 1.99-1.71 4.01-3.36 6.06-5 2.25-1.69 2.25-1.69 3.75-3.62.495-.392.99-.784 1.5-1.19z"/><path fill="#CC3C2E" d="m683 930 2 1v3l3 2c.688 2.12.688 2.12 1 4 .268-.598.536-1.2.812-1.81 1.2-2.21 2.23-3.62 4.19-5.19h3l.312 3.12c.846 4.77 1.88 8.53 5.88 11.5.598.454 1.2.908 1.81 1.38v4c1.11.268 2.23.536 3.38.812 3.62 1.19 3.62 1.19 5.62 4.19.354 2.26.637 4.54.875 6.81.73 5.68 1.62 8.77 5.12 13.2.75 2.88.75 2.88 1 5h-2c1.36 2.04 1.36 2.04 3 4h2c2.55 8 3.61 15.6 4 24-.455-.483-.91-.967-1.38-1.46-1.9-1.8-3.1-2-5.62-2.54-1.35-.637-2.69-1.3-4-2h3c-1.49-.495-1.49-.495-3-1l-.375 1.94-.625 2.06-2 1-2 3-2-2-2 1-2-1v-7l-2 2c-3.12.125-3.12.125-6 0v-5l3-1v-3l-2.44-.375-2.56-.625-1-2h2v-2c1.49.495 1.49.495 3 1 1.29-1.23 1.29-1.23 3-4l-4-2 1-3h-2l.125-3.75c.012-3.27-.268-5.46-2.12-8.25h-4l-2-1v-2c-1.49-.495-1.49-.495-3-1v-2c-1.49.495-1.49.495-3 1v2c-1.81 1.69-1.81 1.69-4 3-1.49-.495-1.49-.495-3-1l-1-8v1c-1.49.495-1.49.495-3 1l-1-2-1 3h3l1 7c-2.38 1.06-2.38 1.06-5 2l-2-1 1 4 11 1-1 2c-1.66.359-3.33.689-5 1-2.23.991-2.23.991-4 2h4v2h-2v3c-6.62 2.88-6.62 2.88-10 4l-2-1v-3l-2 1v-2h-2v5l-1-3h-10v-2c-4.33-1.58-8.43-2.45-13-3l-1 3c-2.06.688-2.06.688-4 1l-1-3-3-1-1-2-6 1v-2l-3-1c-.043-1.67-.04-3.33 0-5l1-1c-.66-.619-1.32-1.24-2-1.88-2-2.12-2-2.12-2-4.12h3l2-3 2 6 6-1-1-5-6-1-.312-3.19c-.672-3.73-1.75-5.65-3.69-8.81l1-3c4 6.75 4 6.75 4 9 .557.268 1.11.536 1.69.812 2.31 1.19 2.31 1.19 4.44 2.75 4.15 2.08 8.29 2.18 12.9 2.44v3h-4c.495.454.99.908 1.5 1.38 1.5 1.62 1.5 1.62 1.5 3.62l3.94.562 2.21.316 1.85.121 1-1c2-.04 4-.042 6 0l-2-1 1-3c2.06-.688 2.06-.688 4-1v3l4 2 .375-1.88c.625-2.12.625-2.12 2.62-4.12.167-2.58.167-2.58 0-5h4c-.495-1.49-.495-1.49-1-3 1.65-4.68 3.5-8.4 7-12 2.25-.812 2.25-.812 4-1l-4-2 1-4 5-1v-2h2v-2l1.94-.312 2.06-.688 1-3z"/><path fill="#C33D2C" d="M583 896h2v2h2l1.62 3.25c.371.741.742 1.48 1.12 2.25.837 1.68 1.67 3.36 2.5 5.04 3.18 6.42 6.47 12.8 9.81 19.1 1.28 2.42 2.55 4.85 3.83 7.27.918 1.74 1.84 3.49 2.76 5.23 2.38 4.62 4.27 9.18 5.77 14.2.44 1.72.44 1.72 1.58 2.71.04 2.33.042 4.67 0 7h6c1.06 1.81 1.06 1.81 2 4-.495 1.49-.495 1.49-1 3l-2-1-1 2-4-1-1-6h-3v2h-2l.125-2.25c-.136-2.99-.412-4.32-2.12-6.75-2.64-.92-2.64-.92-5.62-1.25l-3.04-.453-2.34-.297c-.125-5.75-.125-5.75 1-8h-5v2h-6l-1-6c-.918.156-1.84.312-2.78.473-6.73 1.07-12.5 1.82-19.2.527h-2c-1.49-.495-1.49-.495-3-1l-1-3c-3.72-.693-7.21-1.11-11-1l-1-4-1.88-.312c-2.12-.688-2.12-.688-4.12-3.69l3.88.25c9.23-.058 15.7-4.17 22.3-10.2 1.75-1.93 2.69-3.67 3.81-6l2-1c.972-1.88 1.94-3.76 2.86-5.66 1.2-2.44 2.46-4.83 3.77-7.21.405-.74.81-1.48 1.23-2.24 1.15-1.88 1.15-1.88 3.15-3.88z"/><path fill="#D84636" d="M709 779c2.38-.188 2.38-.188 5 0l2 3c-.875 2.69-.875 2.69-2 5h-2l-.438 1.88C711 791 711 791 710.002 793l3.88-.312 2.18-.176c2.34-.386 2.34-.386 3.95-3.51 2.24 5.38 2.24 10.2 2.12 15.9l-.027 2.66c-.024 2.15-.06 4.31-.098 6.46 1.49.495 1.49.495 3 1l-1 6-2-3c.14 6.93.732 11.7 5.14 17.2.285.579.57 1.16.863 1.75-.855 2.22-.855 2.22-2 4h-2v2h-2l.5 3.5c.393 2.99.498 5.8.375 8.81-.298 3.61-.298 3.61 1.62 5.19 1.5 1.5 1.5 1.5 1.7 3.45-.01 2.02-.1 4.04-.199 6.05l-2-2-2 3h-2c-2.6-2.6-2.79-4.59-3.62-8.16l-.892-3.82-.925-4.08-.95-4.13c-2.18-9.56-4.06-19.1-5.61-28.8-1.17-7.29-3.29-13.7-6.07-20.6-1.06-3.88-.657-6.48.074-10.4-.309-1.3-.309-1.3-.625-2.62-.375-2.38-.375-2.38.75-5.19 1.88-2.19 1.88-2.19 4.56-2.5l2.31.312v-2z"/><path fill="#CE4332" d="M612 880c1.49.247 1.49.247 3 .5v2h-3v3h7v5h-2v7l1-1.56c2.46-1.77 3.25-1.51 6.19-1.12 1.26.227 2.52.454 3.81.688l1 7h3v5l-7 2v4l1.69-.562c2.71-.513 4.66-.102 7.31.562l1-5 3 4 2-1-.063 2.94c-.294 2.94-.294 2.94 1.06 4.06l1-9 3-1c-.596 5.12-1.75 9.8-3.38 14.7-1.92 5.94-3.61 11.9-5.05 18-.578 2.36-.578 2.36-1.58 5.36-2.72-.593-4.51-1.33-6.19-3.61-1.25-2.2-2.38-4.43-3.5-6.7l-1.3-2.55c-3.59-7.11-6.95-14.3-10.3-21.6-3.18-6.71-6.75-13.1-10.7-19.4-2.09-3.36-4.06-6.78-6.01-10.2 3.3-4.95 9.86-3.21 15-2.5z"/><path fill="#D84636" d="M803 900c7.81 3.36 11.2 14 15 21.2 2.25 4.27 4.65 8.44 7.07 12.6.934 2.17.934 2.17-.066 5.17-2.88.125-2.88.125-6 0l-2-2 1-2h-3v4l2 2c.25 3 .25 3 0 6l-2 2v-2l-4-1v-3l-1.44-1.88c-1.76-2.4-2.16-4.21-2.56-7.12l-2 2v-3h-3c.102 2.95.102 2.95 1 6 2.46 1.45 2.46 1.45 5 2l-1 3h-2l-1 4c-1.94.562-1.94.562-4 1l-1-1-.375 1.94-.625 2.06-2 1c-.91 2.34-.91 2.34-1.62 5.06l-.79 2.79c-.192.71-.386 1.42-.585 2.15l-4-1c.39-6.35.936-12 3-18l-.586-2.11c-.606-4.23.627-7.66 1.84-11.7l.66-2.33c1.27-4.4 2.74-8.68 4.38-13 1.09-2.93 1.99-5.91 2.9-8.9.344-1.13.688-2.27 1.04-3.44l.77-2.56z"/><path fill="#E24A38" d="M969 903h11v4l3.81-.625c7.87-.878 15.4 1.42 23 3.19 2.21.448 4.4.706 6.64.934l3.5.5 1 2c-7.54.96-15 1.33-22.6 1.56l-2.01.063c-33.1 1.01-66.2.24-99.4-.626l-1-3c6.88-1.59 13.5-2.32 20.5-2.5 7.95-.276 15.8-.84 23.7-1.84 3.97-.497 7.81-.696 11.8-.66l2.38-.562c2.98-.497 5.52-.075 8.49.371 3.48.312 6.7-.256 10.1-.809l-1-2z"/><path fill="#CF4332" d="M931 994h4l-1 5 2 1v4h8l-2 4h-2v6l-3 1c-1.21 2-1.21 2-2 4h-2c-.495 1.49-.495 1.49-1 3-2.44 2.69-2.44 2.69-5 5h-2l-2 4h-2l-1 3c-1.49 1.26-2.98 2.52-4.51 3.73-1.81 1.55-3.08 3.36-4.49 5.27h-2l-2 4-2-1c2.97-4.45 2.97-4.45 6-9h-8l-1 2h-4l-1-7 3.38-.312c1.2-.227 2.39-.454 3.62-.688l2-3h2l-.063-2.31c.063-2.69.063-2.69 1.06-5.69 1.33-.682 2.66-1.35 4-2 1.66-1.71 1.66-1.71 3.12-3.62 1.51-1.91 1.51-1.91 2.88-3.38h2l1-3 6-1 .375-3.88c.375-3.88.375-3.88 2.62-6.12v-3z"/><path fill="#E24A38" d="m888 930 1 2h106v1l-5.96.586c-2.34.341-2.34.341-5.04 2.41-3.42 2.1-6.02 2.22-10 2.16l-3.49-.033-3.63-.065c-2.38-.034-4.76-.064-7.13-.09l-3.19-.054c-2.54-.096-2.54-.096-4.55 1.08-1.59.084-3.19.107-4.79.098l-2.85-.01-2.98-.025-3.01-.014c-2.46-.012-4.91-.028-7.37-.049l-1 2-1-1-3 1-1-1c-6.23-.417-12.2-.577-18 2l1 2c-3 2-3 2-5.19 1.62-.598-.206-1.2-.413-1.81-.625v-1l-2.34-.516c-1.5-.364-1.5-.364-3.04-.734-1.5-.348-1.5-.348-3.02-.703-2.6-1.05-2.6-1.05-3.95-3.16l-.648-1.89-3 1-2-4 3-1 2-3z"/><path fill="#CC3C2E" d="M583 896h2v2h2c.971 1.94 1.94 3.89 2.91 5.83.931 1.85 1.91 3.67 2.91 5.48 1.19 2.69 1.19 2.69.188 5.69l-1-1c-.495 1.49-.495 1.49-1 3h-5l-1-5h-4c-.495 1.49-.495 1.49-1 3h-2c.495.804.495.804 1 1.62 1.23 2.91 1.14 5.24 1 8.38h-3v6l-2.88.875c-3.18.893-3.18.893-5.12 3.12-2.62.125-2.62.125-5 0 .206.557.413 1.11.625 1.69.497 3.07-.102 4.63-1.62 7.31-2.12.812-2.12.812-4 1l-1-4c-3.72-.693-7.21-1.11-11-1l-1-4-1.88-.312c-2.12-.688-2.12-.688-4.12-3.69l3.88.25c9.23-.058 15.7-4.17 22.3-10.2 1.75-1.93 2.69-3.67 3.81-6l2-1c.972-1.88 1.94-3.76 2.86-5.66 1.2-2.44 2.46-4.83 3.77-7.21.405-.74.81-1.48 1.23-2.24 1.15-1.88 1.15-1.88 3.15-3.88z"/><path fill="#C33E2C" d="M645 878c1.34 1.3 2.68 2.61 4 3.94v6l-5 2 1.48 1.12c2.14 2.64 1.85 4.52 1.77 7.88l-.047 3.19c-.367 5.09-.367 5.09-2.64 7.06-2.3 2.58-2.75 5.44-3.56 8.75l-2-1v-5l-2 1c-.495-1.49-.495-1.49-1-3l-2 4-2.75-.5c-3.36-.601-3.36-.601-7.25-.5v-5l7-1-4-2h5v-3h-3c-.533-1.75-1.05-3.5-1.56-5.25l-.879-2.95c-.56-2.81-.6-4.17.441-6.8 3.97-4.99 11.4-11.3 18-8.94z"/><path fill="#C43E2C" d="M754 952h7c2.61 4.65 4.32 9.08 3.43 14.4l-1.11 3.45c-.532 1.7-.532 1.7-1.07 3.43-.638 1.9-1.28 3.8-1.92 5.7-2.19 6.46-4.11 13-6 19.6-.32 1.1-.641 2.21-.971 3.35l-2.34 8.09h-3c-1.78-3.14-2.43-5.88-2.94-9.44-.87-5.71-2.14-11.3-3.57-16.8-.488-2.71-.488-2.71.512-5.71h5l1-8c.557.186 1.11.371 1.69.562 2.71.513 4.66.102 7.31-.562.158-3.05.158-3.05-1-6h-4v-5l3 1v-2h6l-1-4-6-1v-1z"/><path fill="#CF4332" d="M661 816c2.5 1.62 2.5 1.62 5 4 .312 3.25.312 3.25 0 6l5-5c-.553 4.6-1.51 8.62-3 13-.512 2-1.01 4-1.5 6-1 4.08-2.09 8.04-3.5 12-.544 1.62-1.09 3.25-1.62 4.88L660 861h-1v-5h-4c-.8-3.29-1.1-4.71 0-8l-3-1 1-4h2l1-3h2c-.01-.555-.02-1.11-.032-1.68-.041-2.52-.067-5.05-.093-7.57l-.05-2.64-.02-2.56-.032-2.35c.294-2.85 1.18-5.15 3.23-7.2z"/><path fill="#CE4332" d="m677 772 7 5c2.17-.833 2.17-.833 3-3h6l2 5c-1.63 1.71-2.87 2.93-5 4 .495.454.99.908 1.5 1.38C693 786 693 786 693 788l2.25.188c3.6 1.06 4.72 2.73 6.75 5.81v2c-2.47-1.15-4.05-2.05-6-4-4.1-1.37-6.48-1.03-10.2.812-2.34 1.26-3.85 2.29-5.75 4.19v-4h-5l-1-4 4 1v-2h-5l1-2c-.399-2.1-.399-2.1-1-4h2v-2h2l-2-5h2v-3z"/><path fill="#CF4332" d="M953 969c6.75-.125 6.75-.125 9 1 2 .04 4 .043 6 0v-1h5l-1 4 5 1c-1.43 5.26-4.86 8.65-9 12-3.79 1.48-7.1 1.13-11 0-1.87-2.55-2-3.81-2-7l1-2c-.393-4.5-.393-4.5-3-8z"/><path fill="#D54130" d="M792 941c1.16 3.48.708 5.46 0 9h-2l.035 1.86.028 2.45.035 2.43C790 959 790 959 788.998 962l3 1c-.281 2.29-.575 4.58-.875 6.88l-.492 3.87c-.633 3.26-.633 3.26-2.63 5.26a90.91 90.91 0 0 0-2 4l-1-2-2 2c-1.79-6.52-2.66-11.9-.043-18.4 1.04-2.61 1.78-5.16 2.48-7.88.978-3.65 1.99-7.27 3.12-10.9.228-.724.456-1.45.69-2.2.747-1.68.747-1.68 2.75-2.68z"/><path fill="#D84636" d="m795 874 9 3-1 4-3.88.75c-3.39.77-3.39.77-5.62 3.38l-.5 1.88h-2l-.812 2.06c-3.76 9.29-3.76 9.29-6.19 12.9-1.52-9.41-1.52-9.41 1-14l-2-1 2-2-1-2 10-2 1-7z"/><path fill="#CF4433" d="m999 939 2.12.043 2.12.02c1.88.168 1.88.168 3.88 1.17-2.15 6.89-7.44 13.5-13 18-2.31-.188-2.31-.188-4-1 .495-1.49.495-1.49 1-3h5v-2l-4 1c.45-1.96.91-3.92 1.38-5.88l.773-3.3c.903-2.99 1.44-4.65 4.73-5.05z"/><path fill="#C6392B" d="M599 846h6l1 2c-1 3-1 3-3.38 4.75C600 854 600 854 597 853l.188 2.88L597 859l-3 2c-6.25-1.98-6.25-1.98-8.5-5.06-.5-1.94-.5-1.94.5-3.94l-2-1 2.94-.375L590 850l1-2 1 2h5l2-4z"/><path fill="#C83A2C" d="M703 1143c4.46.99 4.46.99 9 2v7l1-2h2v2l3 1c1.19 3.56 1.19 3.56 2 7l-4 2-7-7-3-1c-.949-2-.949-2-1.69-4.44-.251-.803-.503-1.61-.762-2.43-.551-2.13-.551-2.13-.551-4.13z"/><path fill="#C33E2C" d="M583 896h2v2h2c.676 1.41 1.34 2.83 2 4.25.371.789.742 1.58 1.12 2.39.875 2.36.875 2.36.875 6.36h-2l-2-2-2 .5-2 .5-2-2v-1h-2l.188 2.19c-.225 3.37-1.19 5.12-3.19 7.81h-2l1.06-2.81c1.26-3.17 1.26-3.17-.063-6.19 1.19-2.31 1.19-2.31 3-5 .701-1.07 1.4-2.14 2.12-3.25 1.88-2.75 1.88-2.75 2.88-3.75z"/><path fill="#D54130" d="m779 981 2 4h3l2 1-1 4h-2l.063 2.94C783 996 783 996 782.003 997c-.041 1.67-.043 3.33 0 5h-5l-1-5h-2c.642-5.13 1.54-10 3-15l2-1z"/><path fill="#CF4433" d="M981 951h7v8h4c-1.42 3.15-3.15 5.54-5.44 8.12-.597.683-1.19 1.37-1.81 2.07-1.75 1.8-1.75 1.8-4.75 3.8-3.19-.375-3.19-.375-6-1 2.36-2.36 3.78-2.49 7-3v-4c2-2.25 2-2.25 4-4l-1-2h3l-6-2v-6z"/><path fill="#D54130" d="M589 742c3.38-.125 3.38-.125 7 0l2 2-1 3 3 1-1 7-6 1-1-6-9-1v-5l6-1v-1z"/><path fill="#C33D2B" d="M863 1076h5c.125 5.75.125 5.75-1 8h-3l-1 3c-1.5 2.25-1.5 2.25-4 4-3.08.042-5.99-.408-9-1l2-3 1-3 3 1v-2l3-1c.733-2.02.733-2.02 1-4h3v-2z"/><path fill="#D5402F" d="m824 990 1 8 5 1c-.812 2.44-.812 2.44-2 5l-3 1-1 2h-3c-2-4.75-2-4.75-2-7l-6-1 2-2 2 1v-2h2l-1-3c2.62-3 2.62-3 6-3z"/><path fill="#CD3F2F" d="M654 874c1.22 3.67.631 5.08-.434 8.76l-.967 3.39c-.342 1.17-.684 2.33-1.04 3.54-.338 1.18-.677 2.36-1.03 3.57-.838 2.92-1.68 5.83-2.54 8.74h-1l-1-11-3 1 1-4v2l5-2v-4l-2-1c0-3 .036-5.11 1-8l6 1v-2z"/><path fill="#C33D2C" d="M734 1034c2.76 2.16 3.19 4.29 3.88 7.65.121 1.91.121 1.91-1 3.91-1.88 1-1.88 1-5.88 1-.99 1.48-.99 1.48-2 3-2.41-3.51-3.37-5.73-3-10h2l.875-2.44c1.31-2.98 1.86-3.84 5.12-3.12z"/><path fill="#CC3B2D" d="M594 1034c2.88.188 2.88.188 6 1 1.38 2.56 1.38 2.56 2 5l6-1 1 9c-3.29.8-4.71 1.1-8 0a120.17 120.17 0 0 1-3-5c-.536-.474-1.07-.949-1.62-1.44-2.02-2.29-2.05-4.6-2.38-7.56z"/><path fill="#CD3C2E" d="M728 1011c2.05 3.48 2.57 6.77 3.12 10.8l.508 3.55.367 2.7h-3l-1-6-2 1c-2.16-.559-2.16-.559-4.62-1.44-.817-.287-1.63-.575-2.48-.871-.626-.228-1.25-.456-1.9-.691l1-5 3.31.25c3.72.161 3.72.161 5.62-2.25.351-.66.701-1.32 1.06-2z"/><path fill="#C43D2C" d="M717 1000h3l2 4h5c1.31 5.37 1.31 5.37.063 7.88-3.2 1.74-6.5 1.68-10.1 1.12l-3-2 3-3-3-3h2l-1-3 2-2z"/><path fill="#C43B2B" d="M540 933c3.56 1.25 3.56 1.25 6 3l1 4h-15v-2h-3l-1-4c3.69-1.85 7.96-1.35 12-1z"/><path fill="#D64636" d="M723 889c3 1 3 1 4.17 3.07l1.02 2.5c.344.826.688 1.65 1.04 2.5.254.638.508 1.28.77 1.93h2c1.12 3.36.915 3.97-.312 7.12-.264.704-.529 1.41-.801 2.13-.887 1.74-.887 1.74-2.89 2.74-3.42-6.99-5-14.2-5-22z"/><path fill="#5397CA" d="M1068 819h1v92h-1v-92z"/><path fill="#CE4332" d="m581 906 3 2h3c2 1 2 1 3 2v-3h2c2.12 4.62 2.12 4.62 1 8l-1-1-1 3h-5l-1-5h-6v-5l2-1z"/><path fill="#C5392B" d="M652 1091h3l1 4 6 1c1 3 1 3 0 6-6.44-.607-6.44-.607-8.88-2.31-1.29-1.94-1.84-3.37-2.12-5.69l1-3z"/><path fill="#C33E2C" d="m507 813 7 1c.731 1.98 1.39 3.98 2 6l-1 2c-2-1-2-1-3-2l-1 3h-5c0-3.51.375-6.56 1-10z"/><path fill="#CC3C2D" d="M703 1143c4.46.99 4.46.99 9 2-.61 3.56-1.58 6.68-3 10l-3-1c-.949-2-.949-2-1.69-4.44-.251-.803-.503-1.61-.762-2.43-.551-2.13-.551-2.13-.551-4.13z"/><path fill="#C53B2B" d="M481 794c1 3 1 3 .5 6.44-.434 3.1-.531 4.7.5 7.56l-1-2h-3l-1 5-2-1c.309-1.94.623-3.88.938-5.81l.527-3.27C477 798 477 798 478.005 795l3-1z"/><path fill="#C33C2B" d="M683 964c1.88.125 1.88.125 4 1 1.25 3.06 1.25 3.06 2 6l-3 2-1 3h-4c-.625-2.31-.625-2.31-1-5l2-3h2l-1-4z"/><path fill="#C5392B" d="M734 1155c1.06 1.88 1.06 1.88 2 4l-1 2 2 1 1-3c1.12 5.75 1.12 5.75 0 8l-2-1 1-3h-3l-1 2c-2.48-.99-2.48-.99-5-2 .349-3.26 1.02-4.02 3.56-6.25.804-.578 1.61-1.15 2.44-1.75z"/><path fill="#CF4433" d="M941 980c.124.742.247 1.49.375 2.25.478 2.73.478 2.73 1.81 4.81.812 1.94.812 1.94-.063 4.19-.37.577-.742 1.15-1.12 1.75l-5-1 1-4h-2v-7c3.88-1 3.88-1 5-1z"/><path fill="#CE4332" d="M594 915c3.92 3.36 6.08 7.28 8 12v2h-2v-2l-2.31-.063c-2.69-.938-2.69-.938-4.62-4.25-1.06-3.69-1.06-3.69-.25-6.12.392-.516.784-1.03 1.19-1.56z"/><path fill="#C33D2B" d="M588 1035c2.44.812 2.44.812 5 2l1 3c1.32.702 2.65 1.37 4 2 1.75 1.62 1.75 1.62 3 3l-1 3-4-2v-2c-.577-.247-1.15-.495-1.75-.75-2.6-1.44-4.33-2.99-6.25-5.25v-3zM655 1059c3.38 2.25 3.48 2.68 4.25 6.44l.516 2.37C660 1070 660 1070 659 1073h-2l-1 2c-2.09-3.4-2.18-6.05-2-10h2l-1-6zM610 1041l6 2 1 7c-2.88.125-2.88.125-6 0-2-2-2-2-2.19-5.06.188-2.94.188-2.94 1.19-3.94z"/><path fill="#CB3C2D" d="M558 947h2c1.11 3.33.845 5.62 0 9l-3-1v-2l-7-1 2-1-1-3c1.67-.043 3.33-.04 5 0l1 1 1-2z"/><path fill="#D84636" d="m827 855 3 2-1 3 1 1a88.401 88.401 0 0 1-1 5l-3-3-3 3 .098-6.05c.029-2.03.029-2.03-1.1-3.95 2-1 2-1 5-1z"/><path fill="#D64130" d="M802 787c1.31 2.06 1.31 2.06 2 4l-5-1v2l-7 1c.25-2.38.25-2.38 1-5 3.04-2.39 5.43-2.31 9-1z"/><path fill="#D54130" d="m554 736 1 5c-1.62.054-3.25.093-4.88.125l-2.74.07C545 741 545 741 543 738.995l3-1v-2c3.29-1.1 4.71-.8 8 0z"/><path fill="#CE4332" d="m743 986 7 2v2l2 1v3c-5.42 1.33-5.42 1.33-7.88-.063-1.57-2.7-1.33-4.88-1.12-7.94z"/><path fill="#C33E2C" d="M649 869c1.94.375 1.94.375 4 1l1 2c-.938 2.62-.938 2.62-2 5l-1-2h-3l-2 4-2-3 2-4h2l1-3z"/><path fill="#C33D2B" d="M858 1082c.891 2.67 1.48 5.24 2 8-3.69 1.23-6.21.644-10 0l2-3 1-3 3 1v-2l2-1z"/><path fill="#D84636" d="M836 952c2.49 1.2 4.68 2.45 7 4v3h5l-2 2v2h-5c-.268-.928-.536-1.86-.812-2.81-1.12-3.02-1.89-4.1-4.19-6.19v-2z"/><path fill="#CD3F30" d="m514 735 3 1zm-1 1 2 1v2l-2 1-1 3c-1.67 1.33-3.33 2.67-5 4l-1 3h-2c.375-2.44.375-2.44 1-5l2-1c1.01-1.66 2.01-3.33 3-5 1.69-1.81 1.69-1.81 3-3z"/><path fill="#C33D2B" d="M601 963c2.69.176 5.33.618 8 1l-1 2h-2v5h-4l-2-7 1-1z"/><path fill="#D64130" d="M854 1000c.1 3.49-.222 6.59-1 10h-3c-1.19-2.25-1.19-2.25-2-5 1.34-2.42 2.89-5 6-5z"/><path fill="#CC3C2E" d="M649 887c1.19 3.57.735 5.51.063 9.19l-.59 3.29L648 902h-1l-1-11-3 1 1-4v2l5-3z"/><path fill="#CF4332" d="M944 991c3.72-.201 4.77-.152 8 2v2l2 1-4 2v-2h-6v-3h3l-3-2z"/><path fill="#5397CA" d="M1068 498h1v34h-1v-34z"/><path fill="#C5392B" d="M665 1104c3 1 3 1 4 3h2l1 5-3 1c-2.52-1.97-2.99-2.97-3.69-6.19l-.312-2.81z"/><path fill="#C33D2B" d="m834 1096 6 1-2 1 2 1-1 5h-3c-2.15-3.23-2.2-4.28-2-8z"/><path fill="#D74636" d="M725 873h2c1.28 3.85 1.07 6.95 1 11-2-1-2-1-4-3-.188-3.56-.188-3.56 0-7l1-1z"/><path fill="#CD3F2F" d="m626 899 3 1v2h3v3l-6 1-2-3 1-1-1-2 2-1z"/><path fill="#CD3C2E" d="m747 890 4 2v6h-5c-.042-2.33-.04-4.67 0-7l1-1z"/><path fill="#C5392B" d="M631 882h4v6l-6-1c0-3 0-3 2-5z"/><path fill="#C6392B" d="M728 1038c2.6 3.9 2.15 7.47 2 12-3.94-4.31-3.94-4.31-4.25-7.81l.25-2.19h2v-2z"/><path fill="#CF4332" d="M947 980h6l1 3-1 2h-6l-1-3 1-2z"/><path fill="#CD4332" d="M762 966c1.14 3.36.859 5.3-.312 8.62l-.801 2.35c-.887 2.02-.887 2.02-2.89 4.02-1-2-1-2-.004-5.04.476-1.18.951-2.37 1.44-3.59l1.43-3.6c.373-.915.745-1.83 1.13-2.77z"/><path fill="#D94737" d="m946 963 5 1v5c-3.75 1.12-3.75 1.12-6 0l1-6z"/><path fill="#D64232" d="M792 941c1.18 3.55.992 5.41 0 9-2.06 1.38-2.06 1.38-4 2 .615-7.51.615-7.51 2.56-10l1.44-1z"/><path fill="#C6392B" d="M710 1132c2 .25 2 .25 4 1l1 3-3 3-2-3c-2.56-.73-2.56-.73-5-1l1.94-.938c2-.897 2-.897 3.06-2.06z"/><path fill="#C5392B" d="m867 1080 1 2-1 2h-3l-1 3c-2.06.688-2.06.688-4 1l-1-3 2-2 3 2 1-3 3-2z"/><path fill="#D64130" d="m816 802 2 1v2l2 2-2 2v2l-4-1c.523-2.76 1.11-5.33 2-8z"/><path fill="#C33D2C" d="M500 800c4.22-.196 7.17.198 11 2v3c-4.06-.468-7.47-.88-11-3v-2z"/><path fill="#C33E2C" d="M722 1021c.598.165 1.2.33 1.81.5 2.3.611 2.3.611 5.19.5v5c-2.94-.75-2.94-.75-6-2-.875-2.12-.875-2.12-1-4z"/><path fill="#CE4332" d="m729 1018 2 1c.414 2.07.414 2.07.625 4.56l.227 2.5.148 1.93h-3c-.389-1.29-.761-2.58-1.12-3.88l-.633-2.18c-.08-.642-.16-1.28-.242-1.95l2-2z"/><path fill="#376487" d="M1068 547h1v18h-1v-18z"/><path fill="#000002" d="M1058 932h7v1h-7v-1zM1022 932h7v1h-7v-1z"/></svg>